<?xml version="1.0" encoding="UTF-8"?>
<!DOCTYPE svg PUBLIC "-//W3C//DTD SVG 1.1//EN" "http://www.w3.org/Graphics/SVG/1.1/DTD/svg11.dtd">
<!-- Creator: CorelDRAW -->
<svg xmlns="http://www.w3.org/2000/svg" xml:space="preserve" width="500px" height="500px" style="shape-rendering:geometricPrecision; text-rendering:geometricPrecision; image-rendering:optimizeQuality; fill-rule:evenodd; clip-rule:evenodd"
viewBox="0 0 500 500"
 xmlns:xlink="http://www.w3.org/1999/xlink">
 <defs>
  <style type="text/css">
   <![CDATA[
    .str0 {stroke:#FEFEFE;stroke-width:1.0004}
    .fil4 {fill:#052267}
    .fil3 {fill:#F8F8F8}
    .fil5 {fill:#022E64}
    .fil1 {fill:#94A8B7;fill-rule:nonzero}
    .fil0 {fill:#F8F8F8;fill-rule:nonzero}
    .fil2 {fill:#022E64;fill-rule:nonzero}
   ]]>
  </style>
 </defs>
 <g id="Capa_x0020_1">
  <metadata id="CorelCorpID_0Corel-Layer"/>
  <path class="fil0" d="M85.1707 35.0281l-0.43819 -0.977956c-1.02874,0.609451 -2.113,1.05118 -3.25395,1.32402 -1.14213,0.272836 -2.27953,0.409844 -3.41458,0.409844 -1.3252,0 -2.60906,-0.184253 -3.85513,-0.551577 -1.24489,-0.367324 -2.37639,-0.920082 -3.39568,-1.65473 -0.82205,-0.609451 -1.54489,-1.31457 -2.16851,-2.113 -0.623624,-0.798428 -1.13032,-1.66536 -1.52008,-2.6008 -0.389765,-0.935436 -0.663782,-1.91812 -0.823231,-2.94804 -0.159449,-1.02992 -0.185434,-2.08111 -0.077953,-3.15237 0.179528,-1.78701 0.69449,-3.463 1.54489,-5.02915 0.850396,-1.56615 1.92284,-2.93151 3.21733,-4.09844 1.29449,-1.16693 2.76851,-2.08583 4.42324,-2.75906 1.65473,-0.672049 3.37442,-1.00866 5.16143,-1.00866 1.78583,0 3.43938,0.34134 4.9571,1.0252 1.5189,0.682679 2.80749,1.61221 3.86576,2.78977 1.05945,1.17638 1.85079,2.55355 2.37639,4.13033 0.524411,1.5756 0.696853,3.25749 0.517324,5.0445 -0.129922,1.30276 -0.446458,2.56891 -0.948428,3.79844 -0.50197,1.22953 -1.17402,2.38111 -2.01733,3.45237l2.09174 4.91931 -6.24215 0zm-5.16143 -18.6331c-0.903546,0 -1.77166,0.172441 -2.60552,0.519687 -0.833861,0.347245 -1.57441,0.819688 -2.22284,1.41851 -0.649608,0.598821 -1.18229,1.30394 -1.59922,2.113 -0.418112,0.809058 -0.672049,1.66536 -0.762995,2.56891 -0.0921263,0.924806 -0.0118111,1.79174 0.243308,2.6008 0.255119,0.810239 0.646065,1.5189 1.17402,2.12835 0.526773,0.609451 1.17284,1.0878 1.93701,1.43504 0.762995,0.346064 1.61812,0.519687 2.56418,0.519687 0.630711,0 1.26496,-0.088583 1.90276,-0.268111 0.637797,-0.178347 1.23898,-0.457088 1.80237,-0.835042l-0.835042 -2.04922 2.9634 0c0.764176,-1.11378 1.20709,-2.28072 1.32874,-3.49962 0.0909452,-0.903546 0.00826774,-1.75512 -0.248032,-2.55355 -0.2563,-0.798428 -0.647246,-1.50355 -1.1752,-2.113 -0.526773,-0.609451 -1.17166,-1.09252 -1.93465,-1.4504 -0.762995,-0.356694 -1.60749,-0.535041 -2.53229,-0.535041zm36.0745 9.67916c-0.112205,1.11378 -0.401576,2.16497 -0.868113,3.15237 -0.467718,0.987405 -1.07244,1.8815 -1.81418,2.67993 -0.741735,0.798428 -1.59449,1.48701 -2.55591,2.06457 -0.96142,0.578742 -1.98426,1.0252 -3.06733,1.34056 -0.477167,0.146457 -0.96142,0.262206 -1.45276,0.346064 -0.492521,0.0850396 -0.980318,0.126378 -1.46339,0.126378 -0.483072,0 -0.956696,-0.0413387 -1.42205,-0.126378 -0.464175,-0.0838585 -0.920082,-0.199607 -1.36772,-0.346064 -1.01929,-0.315355 -1.95237,-0.761813 -2.79804,-1.34056 -0.845672,-0.577561 -1.55906,-1.26615 -2.14135,-2.06457 -0.582285,-0.798428 -1.00748,-1.69253 -1.27559,-2.67993 -0.269292,-0.987405 -0.347245,-2.03859 -0.23504,-3.15237l1.5567 -15.5126 6.81026 0 -1.51654 15.1028c-0.0460631,0.461812 0.00590553,0.887011 0.155906,1.27678 0.15,0.388584 0.368505,0.725199 0.655514,1.00866 0.287009,0.283465 0.627167,0.504332 1.02166,0.661419 0.393308,0.158268 0.81142,0.237402 1.25315,0.237402 0.461812,0 0.905908,-0.0791341 1.33111,-0.237402 0.426379,-0.157087 0.81142,-0.377954 1.15512,-0.661419 0.343702,-0.283465 0.62953,-0.620081 0.857483,-1.00866 0.227953,-0.389765 0.366143,-0.814963 0.412206,-1.27678l1.51536 -15.1028 6.81026 0 -1.5567 15.5126zm2.91615 8.95397l2.45552 -24.4666 6.58939 0 -2.45552 24.4666 -6.58939 0zm9.74176 0l2.45552 -24.4666 6.77837 0 -1.84725 18.4123 12.8634 0 -0.60827 6.05435 -19.6418 0zm40.1352 0l1.2626 -12.58 -6.10041 8.63861c-0.0755908,0.126378 -0.188977,0.210237 -0.340159,0.251576 -0.152363,0.0425198 -0.279922,0.0637797 -0.385041,0.0637797 -0.126378,0 -0.261024,-0.0212599 -0.403938,-0.0637797 -0.142914,-0.0413387 -0.239765,-0.125197 -0.289371,-0.251576l-4.36655 -8.63861 -1.2626 12.58 -6.40041 0 2.45552 -24.4666 5.99057 0c0.210237,0 0.379135,0.0944885 0.506695,0.284647l4.82954 9.67798 6.80435 -9.67798c0.166536,-0.190158 0.343702,-0.284647 0.53386,-0.284647l6.02128 0 -2.45552 24.4666 -6.40041 0zm10.1835 0l2.45552 -24.4666 19.5166 0 -0.585829 5.83348 -13.1469 0 -0.35197 3.49962 12.391 0 -0.585829 5.8323 -12.3898 0 -0.35197 3.49962 13.1469 0 -0.581104 5.80159 -19.5166 0zm31.9879 0.755908c-1.63938,0 -3.24332,-0.193701 -4.81183,-0.583466 -1.56969,-0.388584 -3.05434,-0.92953 -4.45631,-1.62284 -0.0425198,0 -0.142914,-0.0425198 -0.302363,-0.126378 -0.158268,-0.105118 -0.23504,-0.178347 -0.230316,-0.220867 0.00236221,-0.0212599 0.0531498,-0.105118 0.151182,-0.252757 0.0992129,-0.146457 0.223229,-0.33071 0.370867,-0.551577 0.148819,-0.220867 0.321261,-0.472442 0.517324,-0.755908 0.197245,-0.284647 0.393308,-0.572836 0.591734,-0.866932 0.415749,-0.589372 0.807877,-1.14567 1.17638,-1.67127 0.368505,-0.525592 0.627167,-0.903546 0.775987,-1.13504 0.262206,0.105118 0.5126,0.231497 0.750002,0.377954 1.07835,0.568112 2.17442,1.00394 3.28938,1.30867 1.11496,0.304725 2.31379,0.457088 3.59647,0.457088 0.356694,0 0.741735,-0.0153544 1.15512,-0.0472442 0.413387,-0.0318899 0.793703,-0.109843 1.14331,-0.236221 0.348426,-0.126378 0.646065,-0.321261 0.894097,-0.583466 0.246851,-0.263387 0.394489,-0.635435 0.442915,-1.11969 0.0236221,-0.230316 -0.0188977,-0.435828 -0.127559,-0.614175 -0.108662,-0.178347 -0.250394,-0.336615 -0.425198,-0.473624 -0.175985,-0.135827 -0.363781,-0.257481 -0.563388,-0.3626 -0.199607,-0.105118 -0.389765,-0.188977 -0.572836,-0.251576 -0.425198,-0.168898 -0.86457,-0.294095 -1.31811,-0.377954 -0.453545,-0.0850396 -0.907089,-0.179528 -1.35827,-0.284647 -0.595277,-0.146457 -1.17992,-0.283465 -1.7563,-0.409844 -0.57638,-0.126378 -1.12914,-0.272836 -1.65827,-0.440553 -0.550395,-0.168898 -1.07363,-0.353151 -1.56851,-0.552758 -0.494883,-0.199607 -0.949609,-0.435828 -1.363,-0.708664 -0.849215,-0.546852 -1.49528,-1.27678 -1.93938,-2.19095 -0.445277,-0.915357 -0.590553,-2.12835 -0.439371,-3.64253 0.0531498,-0.524411 0.164174,-1.05591 0.333072,-1.59213 0.170079,-0.535041 0.394489,-1.04528 0.674412,-1.52835 0.558663,-0.967326 1.23898,-1.76575 2.03741,-2.39646 0.798428,-0.630711 1.663,-1.12441 2.59253,-1.48111 0.928349,-0.357875 1.89449,-0.610632 2.89725,-0.757089 1.00276,-0.147638 1.99843,-0.220867 2.98584,-0.220867 1.61812,0 3.19607,0.194883 4.73387,0.583466 1.53662,0.388584 2.97639,1.02402 4.31694,1.90749 -0.614175,0.882286 -1.21063,1.74922 -1.79056,2.6008 -0.578742,0.851577 -1.16575,1.71851 -1.75867,2.6008 -1.15985,-0.588191 -2.29371,-1.07126 -3.40159,-1.4504 -1.1067,-0.377954 -2.32324,-0.566931 -3.64726,-0.566931 -0.315355,0 -0.647246,0.0153544 -0.998035,0.0472442 -0.349607,0.0318899 -0.677955,0.109843 -0.985042,0.236221 -0.307088,0.126378 -0.566931,0.310631 -0.780711,0.551577 -0.212599,0.242127 -0.340159,0.562206 -0.380316,0.96142 -0.0295277,0.295277 0.00826774,0.546852 0.113386,0.757089 0.124016,0.231497 0.372048,0.435828 0.742916,0.615356 0.370867,0.178347 0.83268,0.34134 1.38544,0.487797 0.552758,0.147638 1.15867,0.289371 1.81654,0.426379 0.659057,0.135827 1.34764,0.29882 2.06339,0.487797 0.695671,0.190158 1.39489,0.405119 2.09528,0.647246 0.700396,0.240946 1.35473,0.535041 1.96064,0.882286 0.605907,0.347245 1.13741,0.757089 1.59449,1.22953 0.457088,0.473624 0.80079,1.03583 1.02874,1.68662 0.183071,0.484253 0.28819,1.00394 0.316536,1.56142 0.0283465,0.556301 0.0153544,1.10788 -0.0401576,1.65473 -0.16063,1.59686 -0.617718,2.91143 -1.37245,3.94135 -0.754727,1.02992 -1.6878,1.84371 -2.79922,2.44253 -1.11142,0.600002 -2.34095,1.02048 -3.68978,1.26142 -1.34764,0.242127 -2.68465,0.3626 -4.00867,0.3626z"/>
  <path class="fil1" d="M242.463 35.0281l-0.922444 -3.37442 -7.53546 0 -1.59922 3.37442 -6.90475 0 11.504 -24.4666 5.7697 0 6.59293 24.4666 -6.90475 0zm-3.45592 -15.5126l-2.60316 6.46301 3.87757 0 -1.27441 -6.46301zm22.9276 15.9532c-1.80827,0 -3.46064,-0.34134 -4.9571,-1.02402 -1.49764,-0.68386 -2.76969,-1.6193 -3.81733,-2.80631 -1.04764,-1.18819 -1.82835,-2.56418 -2.3445,-4.13033 -0.514962,-1.56615 -0.68386,-3.23151 -0.506695,-4.99726 0.177166,-1.76575 0.680317,-3.43111 1.50945,-4.99726 0.830318,-1.56615 1.88859,-2.94214 3.17363,-4.13033 1.28622,-1.18701 2.74607,-2.12245 4.38072,-2.80513 1.63465,-0.68386 3.35552,-1.0252 5.16261,-1.0252 1.63938,0 3.18544,0.300001 4.63938,0.898822 1.45276,0.598821 2.76379,1.46575 3.9319,2.6008l-5.48742 4.41379c-1.13268,-0.861026 -2.37166,-1.29213 -3.71694,-1.29213 -0.882286,0 -1.71969,0.167717 -2.50985,0.504332 -0.79016,0.336615 -1.48819,0.798428 -2.0941,1.38662 -0.604726,0.589372 -1.10433,1.26733 -1.49646,2.03386 -0.392127,0.767719 -0.630711,1.57087 -0.714569,2.41182 -0.0862207,0.862207 -0.01063,1.67599 0.227953,2.44371 0.237402,0.766538 0.601183,1.43977 1.08898,2.01733 0.488978,0.578742 1.08898,1.04055 1.80001,1.3878 0.712207,0.346064 1.50827,0.519687 2.39174,0.519687 1.00866,0 1.97245,-0.230316 2.89135,-0.693309 0.918901,-0.461812 1.74567,-1.11378 2.4815,-1.95473l4.77876 4.22482c-1.46339,1.59686 -3.12757,2.83229 -4.99135,3.70395 -1.86379,0.872837 -3.80434,1.30867 -5.82167,1.30867z"/>
  <g id="_633626280">
   <path id="_633629736" class="fil1" d="M106.335 176.415l-0.612994 -2.27599 -5.08584 0 -1.08898 2.27599 -4.65946 0 7.83546 -16.5119 3.89293 0 4.37954 16.5119 -4.66064 0zm-2.28662 -10.4693l-1.7752 4.36182 2.61733 0 -0.842129 -4.36182zm21.5327 -1.95591l-4.5319 0 -1.30158 12.4252 -4.49057 0 1.30158 -12.4252 -4.53309 0 -0.265749 -0.300001 0.395671 -3.78663 14.1508 0 -0.395671 3.78663 -0.329529 0.300001zm1.18819 12.4252l1.72914 -16.5119 4.57442 0 -1.30158 12.4276 8.68231 0 -0.42756 4.08426 -13.2567 0zm15.3189 0l1.72914 -16.5119 13.1717 0 -0.411025 3.93663 -8.87247 0 -0.248032 2.36221 8.36105 0 -0.412206 3.93663 -8.36223 0 -0.246851 2.36221 8.87247 0 -0.409844 3.91419 -13.1717 0zm30.8576 -12.4252l-4.53309 0 -1.30158 12.4252 -4.49057 0 1.30158 -12.4252 -4.5319 0 -0.26693 -0.300001 0.396852 -3.78663 14.1508 0 -0.396852 3.78663 -0.328347 0.300001zm1.76221 12.4252l1.72914 -16.5119 4.44686 0 -1.72914 16.5119 -4.44686 0zm16.0973 0.510238c-1.22126,0 -2.33505,-0.230316 -3.34489,-0.690947 -1.00748,-0.460631 -1.8626,-1.09134 -2.56772,-1.89331 -0.702758,-0.801971 -1.22599,-1.7315 -1.57087,-2.78741 -0.342521,-1.05709 -0.451183,-2.18032 -0.325985,-3.37324 0.124016,-1.19174 0.47008,-2.31497 1.03465,-3.37324 0.564569,-1.05591 1.28268,-1.98426 2.15316,-2.78623 0.872837,-0.801971 1.86024,-1.43268 2.96458,-1.89449 1.10552,-0.460631 2.2689,-0.692128 3.48899,-0.692128 1.10552,0 2.14843,0.20315 3.12757,0.607089 0.979137,0.403938 1.86142,0.988586 2.64686,1.75512l-3.71812 2.97993c-0.760632,-0.582285 -1.59567,-0.872837 -2.50394,-0.872837 -0.596459,0 -1.16103,0.114567 -1.69607,0.340159 -0.53386,0.226772 -1.0063,0.539765 -1.41615,0.936617 -0.409844,0.398033 -0.750002,0.855121 -1.01811,1.37245 -0.265749,0.518506 -0.428742,1.06063 -0.486616,1.62756 -0.0614175,0.582285 -0.0141733,1.1315 0.144095,1.64882 0.159449,0.519687 0.402757,0.97205 0.731105,1.363 0.327166,0.389765 0.729924,0.701577 1.20945,0.936617 0.48071,0.232678 1.01575,0.349607 1.61221,0.349607 0.681498,0 1.33229,-0.155906 1.95355,-0.467718 0.621262,-0.311812 1.18229,-0.751183 1.6819,-1.3193l3.21143 2.85237c-0.99331,1.07717 -2.11772,1.91103 -3.37914,2.49922 -1.25906,0.589372 -2.57127,0.882286 -3.9319,0.882286zm16.7445 0c-1.2189,0 -2.33859,-0.225591 -3.35434,-0.680317 -1.01693,-0.453545 -1.88032,-1.07363 -2.59253,-1.86024 -0.711026,-0.788979 -1.24252,-1.71497 -1.59095,-2.77796 -0.349607,-1.06418 -0.461812,-2.19922 -0.336615,-3.40513 0.125197,-1.20591 0.477167,-2.34095 1.05,-3.40395 0.571655,-1.06418 1.29685,-1.99016 2.17324,-2.77678 0.876381,-0.788979 1.87205,-1.4126 2.98347,-1.87323 1.11142,-0.460631 2.27953,-0.690947 3.49844,-0.690947 1.20591,0 2.31969,0.230316 3.34371,0.690947 1.02284,0.460631 1.88859,1.08426 2.6008,1.87323 0.712207,0.786617 1.2437,1.7126 1.59331,2.77678 0.348426,1.063 0.45945,2.19804 0.333072,3.40395 -0.125197,1.20591 -0.474805,2.34095 -1.04646,3.40513 -0.572836,1.063 -1.29922,1.98898 -2.1756,2.77796 -0.876381,0.786617 -1.87442,1.4067 -2.99174,1.86024 -1.11851,0.454726 -2.2819,0.680317 -3.48781,0.680317zm1.38898 -13.2556c-0.623624,0 -1.21418,0.124016 -1.77402,0.372048 -0.557482,0.248032 -1.04882,0.578742 -1.47402,0.989767 -0.428742,0.412206 -0.778349,0.890554 -1.05709,1.43622 -0.276379,0.545671 -0.446458,1.12323 -0.511419,1.73386 -0.0625986,0.595277 -0.0118111,1.17166 0.15,1.72323 0.162993,0.553939 0.412206,1.03701 0.753546,1.44804 0.340159,0.411025 0.761813,0.740554 1.26851,0.988586 0.505513,0.248032 1.07126,0.37323 1.69489,0.37323 0.625986,0 1.21536,-0.125197 1.77402,-0.37323 0.556301,-0.248032 1.04882,-0.577561 1.4752,-0.988586 0.426379,-0.411025 0.77953,-0.894097 1.05591,-1.44804 0.278741,-0.551577 0.447639,-1.12796 0.510238,-1.72323 0.0649608,-0.610632 0.0153544,-1.18819 -0.147638,-1.73386 -0.161812,-0.545671 -0.414568,-1.02402 -0.754727,-1.43622 -0.338977,-0.411025 -0.762995,-0.741735 -1.26851,-0.989767 -0.505513,-0.248032 -1.0689,-0.372048 -1.69489,-0.372048zm23.8914 13.2556c-1.22126,0 -2.33505,-0.230316 -3.34489,-0.690947 -1.0063,-0.460631 -1.8626,-1.09134 -2.56654,-1.89331 -0.703939,-0.801971 -1.22717,-1.7315 -1.57087,-2.78741 -0.342521,-1.05709 -0.452364,-2.18032 -0.325985,-3.37324 0.124016,-1.19174 0.468899,-2.31497 1.03347,-3.37324 0.56575,-1.05591 1.28268,-1.98426 2.15434,-2.78623 0.871656,-0.801971 1.85906,-1.43268 2.96458,-1.89449 1.10552,-0.460631 2.26772,-0.692128 3.48781,-0.692128 1.10552,0 2.14843,0.20315 3.12875,0.607089 0.977956,0.403938 1.86024,0.988586 2.64568,1.75512l-3.71694 2.97993c-0.761813,-0.582285 -1.59686,-0.872837 -2.50394,-0.872837 -0.59764,0 -1.16103,0.114567 -1.69725,0.340159 -0.53386,0.226772 -1.0063,0.539765 -1.41615,0.936617 -0.409844,0.398033 -0.750002,0.855121 -1.01693,1.37245 -0.26693,0.518506 -0.429923,1.06063 -0.487797,1.62756 -0.0614175,0.582285 -0.0141733,1.1315 0.145276,1.64882 0.158268,0.519687 0.401576,0.97205 0.729924,1.363 0.327166,0.389765 0.729924,0.701577 1.20945,0.936617 0.48071,0.232678 1.01575,0.349607 1.61339,0.349607 0.680317,0 1.33111,-0.155906 1.95355,-0.467718 0.620081,-0.311812 1.18111,-0.751183 1.68071,-1.3193l3.21143 2.85237c-0.992129,1.07717 -2.11772,1.91103 -3.37914,2.49922 -1.25906,0.589372 -2.57127,0.882286 -3.9319,0.882286zm9.18192 -0.510238l1.72914 -16.5119 4.57442 0 -1.30158 12.4276 8.68231 0 -0.428742 4.08426 -13.2556 0zm29.8891 -6.04254c-0.0791341,0.752365 -0.275198,1.46103 -0.594096,2.12835 -0.318899,0.666144 -0.729924,1.26851 -1.23307,1.80827 -0.50197,0.538584 -1.07953,1.00394 -1.73032,1.39252 -0.651971,0.390946 -1.34292,0.693309 -2.0752,0.905908 -0.322442,0.0980318 -0.648427,0.177166 -0.981499,0.232678 -0.331891,0.0566931 -0.662601,0.0850396 -0.988586,0.0850396 -0.325985,0 -0.644884,-0.0283465 -0.959058,-0.0850396 -0.311812,-0.055512 -0.620081,-0.134646 -0.922444,-0.232678 -0.686223,-0.212599 -1.31457,-0.514962 -1.88268,-0.905908 -0.570474,-0.388584 -1.04882,-0.85394 -1.44095,-1.39252 -0.388584,-0.539765 -0.674412,-1.14213 -0.852759,-1.80827 -0.178347,-0.667325 -0.229135,-1.37599 -0.15,-2.12835l1.09725 -10.4693 4.59686 0 -1.0689 10.1918c-0.0318899,0.312993 0.00236221,0.600002 0.101575,0.862207 0.100394,0.263387 0.246851,0.488978 0.439371,0.680317 0.193701,0.193701 0.421655,0.34134 0.687404,0.447639 0.26693,0.1063 0.548033,0.159449 0.845672,0.159449 0.311812,0 0.612994,-0.0531498 0.900003,-0.159449 0.287009,-0.1063 0.548033,-0.253938 0.77953,-0.447639 0.23504,-0.191339 0.429923,-0.41693 0.583466,-0.680317 0.153544,-0.262206 0.248032,-0.549214 0.281103,-0.862207l1.06772 -10.1918 4.59568 0 -1.09607 10.4693zm12.0485 6.04254l-9.36263 0 1.72914 -16.5119 8.64097 0c0.310631,0 0.630711,0.0377954 0.955515,0.118111 0.325985,0.0767719 0.640159,0.191339 0.942523,0.338977 0.304725,0.15 0.584648,0.323623 0.840948,0.522049 0.255119,0.199607 0.467718,0.419293 0.641341,0.660238 0.311812,0.424017 0.53386,0.900003 0.672049,1.4256 0.135827,0.524411 0.174804,1.063 0.11693,1.61693 -0.0661419,0.637797 -0.257481,1.25197 -0.575199,1.83898 -0.318899,0.589372 -0.740554,1.10433 -1.26969,1.54489 0.292914,0.197245 0.55512,0.439371 0.786617,0.721656 0.233859,0.284647 0.424017,0.59764 0.571655,0.936617 0.15,0.34134 0.257481,0.699215 0.324804,1.07599 0.067323,0.375592 0.0814963,0.740554 0.044882,1.09489 -0.0661419,0.623624 -0.24567,1.21536 -0.537403,1.77638 -0.294095,0.561025 -0.672049,1.05 -1.13268,1.46811 -0.461812,0.418112 -0.983861,0.752365 -1.5626,1.0004 -0.581104,0.248032 -1.18819,0.372048 -1.82717,0.372048zm-0.681498 -13.1918l-2.95749 0 -0.353151 3.36143 2.95749 0c0.454726,0 0.865751,-0.166536 1.23426,-0.499608 0.369686,-0.333072 0.575199,-0.727561 0.623624,-1.18229 0.0484253,-0.452364 -0.077953,-0.845672 -0.375592,-1.17992 -0.29882,-0.333072 -0.674412,-0.499608 -1.12914,-0.499608zm-0.517324 6.36262l-3.10749 0 -0.349607 3.34017 3.10631 0c0.468899,0 0.883467,-0.162993 1.2437,-0.488978 0.360237,-0.327166 0.56575,-0.724018 0.614175,-1.19292 0.0484253,-0.453545 -0.0744097,-0.84331 -0.366143,-1.1693 -0.292914,-0.325985 -0.67323,-0.488978 -1.14095,-0.488978z"/>
   <path id="_633630600" class="fil2" d="M118.172 149.808l-0.545671 -1.21772c-1.28032,0.760632 -2.63269,1.30867 -4.05592,1.65001 -1.42205,0.34134 -2.84056,0.510238 -4.25434,0.510238 -1.64882,0 -3.25159,-0.229135 -4.80238,-0.686223 -1.55197,-0.45945 -2.9634,-1.14567 -4.23308,-2.06339 -1.02402,-0.759451 -1.92402,-1.63819 -2.70237,-2.63269 -0.777168,-0.994491 -1.40906,-2.07638 -1.89331,-3.24096 -0.486616,-1.16575 -0.829136,-2.39056 -1.02638,-3.67442 -0.198426,-1.28386 -0.231497,-2.59253 -0.0968507,-3.92836 0.222048,-2.2252 0.86457,-4.31576 1.9252,-6.26577 1.06063,-1.95237 2.39646,-3.65434 4.00986,-5.10828 1.61103,-1.45394 3.44765,-2.6008 5.51104,-3.4382 2.06103,-0.837404 4.20592,-1.2567 6.4323,-1.2567 2.22638,0 4.28387,0.425198 6.176,1.27678 1.89331,0.850396 3.49962,2.01024 4.81891,3.47718 1.32048,1.46693 2.3067,3.1819 2.96103,5.14608 0.654333,1.96536 0.868113,4.05946 0.644884,6.28703 -0.162993,1.62284 -0.556301,3.20198 -1.18111,4.73505 -0.627167,1.53189 -1.46457,2.96576 -2.51457,4.30159l2.60552 6.12876 -7.77876 0zm-6.42994 -23.2205c-1.12678,0 -2.20867,0.217324 -3.24804,0.649608 -1.03819,0.432285 -1.963,1.02166 -2.77087,1.76812 -0.807877,0.746459 -1.47284,1.62284 -1.99371,2.6315 -0.518506,1.00866 -0.836223,2.0752 -0.948428,3.20198 -0.11693,1.15158 -0.0153544,2.23347 0.302363,3.24214 0.316536,1.00748 0.806695,1.89213 1.46339,2.65158 0.656695,0.760632 1.46103,1.35591 2.41182,1.78819 0.953153,0.432285 2.01851,0.647246 3.19725,0.647246 0.786617,0 1.57678,-0.111024 2.37048,-0.333072 0.796065,-0.223229 1.54371,-0.570474 2.24528,-1.04174l-1.03937 -2.55355 3.69332 0c0.949609,-1.3878 1.50355,-2.84174 1.65591,-4.36182 0.114567,-1.12678 0.01063,-2.18741 -0.30945,-3.1819 -0.32008,-0.995672 -0.807877,-1.87205 -1.46457,-2.63269 -0.656695,-0.759451 -1.46103,-1.36063 -2.413,-1.80709 -0.949609,-0.445277 -2.00079,-0.668506 -3.15237,-0.668506zm44.9541 12.0626c-0.139371,1.38898 -0.499608,2.69765 -1.08189,3.92836 -0.582285,1.23071 -1.33583,2.3445 -2.26064,3.34017 -0.925987,0.994491 -1.98662,1.85316 -3.18426,2.57363 -1.2,0.720475 -2.47324,1.27678 -3.82206,1.6689 -0.595277,0.184253 -1.19882,0.327166 -1.81064,0.432285 -0.614175,0.105118 -1.22126,0.157087 -1.82481,0.157087 -0.601183,0 -1.19292,-0.0519687 -1.77048,-0.157087 -0.578742,-0.105118 -1.14804,-0.248032 -1.70434,-0.432285 -1.27087,-0.392127 -2.43308,-0.948428 -3.48663,-1.6689 -1.05473,-0.720475 -1.94528,-1.57914 -2.67048,-2.57363 -0.724018,-0.995672 -1.25315,-2.10946 -1.58977,-3.34017 -0.333072,-1.23071 -0.431104,-2.53938 -0.291733,-3.92836l1.94056 -19.3312 8.48625 0 -1.88977 18.8197c-0.0578742,0.577561 0.00708664,1.1067 0.19252,1.59213 0.188977,0.484253 0.460631,0.903546 0.817325,1.25788 0.357875,0.353151 0.781892,0.628348 1.27441,0.824412 0.490159,0.196064 1.01103,0.294095 1.56024,0.294095 0.577561,0 1.13032,-0.0980318 1.66064,-0.294095 0.530317,-0.196064 1.00985,-0.471261 1.43859,-0.824412 0.42756,-0.354332 0.784254,-0.773624 1.06772,-1.25788 0.284647,-0.485435 0.454726,-1.01457 0.513781,-1.59213l1.88859 -18.8197 8.48625 0 -1.93938 19.3312zm3.63426 11.1579l3.06025 -30.4891 8.21105 0 -3.06025 30.4891 -8.21105 0zm12.1406 0l3.06025 -30.4891 8.44727 0 -2.30316 22.9453 16.03 0 -0.757089 7.54372 -24.4772 0zm50.0163 0l1.57441 -15.6768 -7.60278 10.7658c-0.0956696,0.157087 -0.237402,0.262206 -0.425198,0.314174 -0.188977,0.0519687 -0.349607,0.0791341 -0.479529,0.0791341 -0.157087,0 -0.324804,-0.0271654 -0.503151,-0.0791341 -0.177166,-0.0519687 -0.29882,-0.157087 -0.360237,-0.314174l-5.44136 -10.7658 -1.57441 15.6768 -7.97601 0 3.06025 -30.4891 7.46459 0c0.262206,0 0.473624,0.118111 0.633073,0.354332l6.01774 12.0615 8.47916 -12.0615c0.207875,-0.236221 0.428742,-0.354332 0.664963,-0.354332l7.50357 0 -3.06025 30.4891 -7.97483 0zm12.6898 0l3.06025 -30.4891 24.3202 0 -0.729924 7.26853 -16.3843 0 -0.437009 4.36182 15.4418 0 -0.729924 7.26853 -15.4418 0 -0.43819 4.36064 16.3843 0 -0.725199 7.22955 -24.3202 0zm39.8635 0.942523c-2.04331,0 -4.04293,-0.242127 -5.99648,-0.727561 -1.95709,-0.483072 -3.80789,-1.15748 -5.55474,-2.02205 -0.0519687,0 -0.178347,-0.0519687 -0.376773,-0.157087 -0.196064,-0.131103 -0.291733,-0.223229 -0.287009,-0.275198 0.00236221,-0.0271654 0.0661419,-0.131103 0.190158,-0.314174 0.122835,-0.184253 0.276379,-0.412206 0.461812,-0.687404 0.184253,-0.275198 0.399214,-0.589372 0.644884,-0.942523 0.24567,-0.354332 0.490159,-0.713388 0.73701,-1.08189 0.519687,-0.733467 1.00748,-1.42678 1.46457,-2.08229 0.45945,-0.653152 0.783073,-1.12441 0.968507,-1.41378 0.327166,0.129922 0.637797,0.289371 0.934255,0.471261 1.3441,0.707483 2.71064,1.25079 4.09844,1.63111 1.39134,0.379135 2.88426,0.569293 4.4823,0.569293 0.445277,0 0.924806,-0.0188977 1.44095,-0.0578742 0.5126,-0.0401576 0.988586,-0.138189 1.42205,-0.295277 0.435828,-0.158268 0.806695,-0.399214 1.11496,-0.72638 0.307088,-0.328347 0.49134,-0.793703 0.552758,-1.39607 0.0283465,-0.287009 -0.0248032,-0.543309 -0.159449,-0.765357 -0.134646,-0.223229 -0.311812,-0.419293 -0.530317,-0.589372 -0.218505,-0.17126 -0.452364,-0.32008 -0.701577,-0.452364 -0.248032,-0.131103 -0.485435,-0.236221 -0.714569,-0.314174 -0.527954,-0.209056 -1.07599,-0.366143 -1.64056,-0.471261 -0.56575,-0.103937 -1.1315,-0.222048 -1.69371,-0.354332 -0.741735,-0.18189 -1.47166,-0.353151 -2.18859,-0.510238 -0.718112,-0.157087 -1.4067,-0.34134 -2.06575,-0.550395 -0.686223,-0.209056 -1.33937,-0.43819 -1.95473,-0.686223 -0.616537,-0.250394 -1.18347,-0.54449 -1.69961,-0.884648 -1.05827,-0.681498 -1.86379,-1.59095 -2.41772,-2.73072 -0.552758,-1.13977 -0.735829,-2.65276 -0.545671,-4.53781 0.0661419,-0.654333 0.20315,-1.31575 0.415749,-1.98426 0.211418,-0.667325 0.490159,-1.30276 0.838585,-1.90631 0.698034,-1.20355 1.54252,-2.19922 2.53938,-2.98584 0.995672,-0.785436 2.07166,-1.40197 3.23033,-1.84607 1.15867,-0.445277 2.36103,-0.759451 3.60946,-0.943704 1.25079,-0.18189 2.49095,-0.274017 3.72285,-0.274017 2.01615,0 3.98269,0.240946 5.89962,0.72638 1.91575,0.484253 3.70749,1.27678 5.37876,2.37639 -0.764176,1.10079 -1.50945,2.1815 -2.22993,3.24214 -0.722837,1.06063 -1.45394,2.14135 -2.19213,3.24096 -1.44685,-0.732286 -2.85946,-1.33583 -4.23899,-1.80709 -1.37953,-0.471261 -2.89607,-0.707483 -4.54608,-0.707483 -0.393308,0 -0.806695,0.0200788 -1.24252,0.0602364 -0.435828,0.0389765 -0.845672,0.137008 -1.22717,0.294095 -0.383859,0.157087 -0.707483,0.386222 -0.973231,0.687404 -0.26693,0.301182 -0.425198,0.701577 -0.474805,1.19764 -0.0354332,0.366143 0.01063,0.682679 0.141733,0.943704 0.154725,0.287009 0.462994,0.543309 0.923625,0.766538 0.461812,0.222048 1.03937,0.424017 1.72914,0.60827 0.686223,0.184253 1.44213,0.360237 2.263,0.531498 0.820869,0.168898 1.67835,0.372048 2.57127,0.60827 0.866932,0.23504 1.73741,0.504332 2.61024,0.805514 0.874019,0.300001 1.6878,0.668506 2.44253,1.10079 0.755908,0.431104 1.41851,0.942523 1.98898,1.53189 0.569293,0.589372 0.996854,1.28859 1.2815,2.10119 0.227953,0.603545 0.360237,1.25079 0.394489,1.94528 0.0354332,0.693309 0.0188977,1.38189 -0.0484253,2.06221 -0.200788,1.99134 -0.772443,3.62718 -1.71142,4.91104 -0.941342,1.28386 -2.10355,2.29961 -3.48899,3.04607 -1.38308,0.746459 -2.91851,1.26969 -4.59805,1.57087 -1.67953,0.301182 -3.34489,0.451183 -4.9949,0.451183z"/>
  </g>
  <g id="_633625848">
   <path id="_633627480" class="fil1" d="M125.079 306.074l-0.759451 -2.82521 -6.31065 0 -1.35355 2.82521 -5.78151 0 9.72523 -20.4898 4.8319 0 5.43073 20.4898 -5.7827 0zm-2.83702 -12.991l-2.20513 5.41301 3.24804 0 -1.04292 -5.41301zm26.7591 -2.42954l-5.62443 0 -1.61575 15.4205 -5.57128 0 1.61575 -15.4205 -5.62443 0 -0.33071 -0.369686 0.492521 -4.69962 17.5595 0 -0.492521 4.69962 -0.408663 0.369686zm1.47284 15.4205l2.14725 -20.4898 5.67758 0 -1.61575 15.4205 10.7729 0 -0.531498 5.06931 -16.4504 0zm19.0111 0l2.14725 -20.4898 16.3441 0 -0.511419 4.88505 -11.0103 0 -0.307088 2.93032 10.3772 0 -0.5126 4.88505 -10.3772 0 -0.307088 2.93032 11.0103 0 -0.509057 4.85907 -16.3441 0zm38.2915 -15.4205l-5.62443 0 -1.61575 15.4205 -5.57128 0 1.61575 -15.4205 -5.62443 0 -0.33071 -0.369686 0.492521 -4.69962 17.5595 0 -0.492521 4.69962 -0.408663 0.369686zm2.18623 15.4205l2.14725 -20.4898 5.51813 0 -2.14725 20.4898 -5.51813 0zm19.9749 0.634254c-1.51418,0 -2.89725,-0.287009 -4.14804,-0.858664 -1.25197,-0.571655 -2.31379,-1.35591 -3.18544,-2.3504 -0.874019,-0.994491 -1.52363,-2.14725 -1.95001,-3.45828 -0.425198,-1.31221 -0.559844,-2.7071 -0.405119,-4.18584 0.154725,-1.47874 0.582285,-2.87363 1.28268,-4.18466 0.700396,-1.31221 1.59213,-2.46497 2.67402,-3.45946 1.08071,-0.994491 2.3067,-1.77756 3.67796,-2.3504 1.37126,-0.571655 2.81339,-0.857483 4.32757,-0.857483 1.37245,0 2.66694,0.250394 3.8823,0.752365 1.21418,0.50197 2.31024,1.22835 3.28347,2.17796l-4.61104 3.69686c-0.946066,-0.721656 -1.9819,-1.08189 -3.10867,-1.08189 -0.739372,0 -1.44095,0.140552 -2.10355,0.421655 -0.663782,0.282284 -1.24961,0.669687 -1.75985,1.16221 -0.509057,0.492521 -0.92953,1.06063 -1.26024,1.70315 -0.331891,0.642522 -0.53386,1.31575 -0.607089,2.01969 -0.0755908,0.721656 -0.0165355,1.40434 0.180709,2.04686 0.196064,0.642522 0.498427,1.20591 0.904727,1.69016 0.407482,0.483072 0.908271,0.870475 1.50237,1.16103 0.594096,0.290552 1.2626,0.435828 2.00197,0.435828 0.844491,0 1.65237,-0.193701 2.42363,-0.581104 0.771262,-0.387403 1.46693,-0.933074 2.08583,-1.63701l3.98505 3.53859c-1.23071,1.33819 -2.62796,2.37166 -4.19293,3.10277 -1.56378,0.729924 -3.19017,1.09607 -4.88033,1.09607zm20.7792 0c-1.51418,0 -2.9008,-0.282284 -4.16222,-0.845672 -1.26142,-0.563388 -2.33387,-1.33347 -3.21733,-2.31024 -0.882286,-0.976775 -1.54134,-2.12599 -1.97481,-3.44529 -0.434647,-1.32048 -0.572836,-2.72954 -0.41693,-4.22482 0.157087,-1.49646 0.590553,-2.90552 1.30158,-4.22482 0.709845,-1.32048 1.60985,-2.46969 2.69765,-3.44647 1.08898,-0.976775 2.32205,-1.75158 3.70277,-2.32324 1.38071,-0.572836 2.82639,-0.858664 4.34056,-0.858664 1.49646,0 2.87954,0.285828 4.14804,0.858664 1.26969,0.571655 2.34686,1.34646 3.22914,2.32324 0.883467,0.976775 1.54134,2.12599 1.97599,3.44647 0.433466,1.3193 0.571655,2.72836 0.414568,4.22482 -0.155906,1.49528 -0.589372,2.90434 -1.29922,4.22482 -0.711026,1.3193 -1.60985,2.46851 -2.69883,3.44529 -1.0878,0.976775 -2.3256,1.74686 -3.71458,2.31024 -1.3878,0.563388 -2.82993,0.845672 -4.32639,0.845672zm1.72323 -16.4504c-0.774806,0 -1.50709,0.153544 -2.2004,0.461812 -0.692128,0.308269 -1.30158,0.716931 -1.8319,1.22835 -0.527954,0.510238 -0.964964,1.10433 -1.30867,1.78229 -0.343702,0.676774 -0.553939,1.39489 -0.634254,2.15198 -0.0767719,0.739372 -0.0153544,1.45158 0.185434,2.1378 0.200788,0.687404 0.5126,1.28504 0.933074,1.79646 0.422836,0.510238 0.947247,0.918901 1.57441,1.22717 0.628348,0.308269 1.32993,0.461812 2.10473,0.461812 0.774806,0 1.50709,-0.153544 2.19922,-0.461812 0.693309,-0.308269 1.30394,-0.716931 1.8319,-1.22717 0.530317,-0.511419 0.966145,-1.10906 1.31103,-1.79646 0.344883,-0.686223 0.556301,-1.39843 0.633073,-2.1378 0.0803152,-0.757089 0.0177166,-1.4752 -0.184253,-2.15198 -0.201969,-0.677955 -0.5126,-1.27205 -0.935436,-1.78229 -0.420474,-0.511419 -0.946066,-0.920082 -1.57441,-1.22835 -0.627167,-0.308269 -1.32874,-0.461812 -2.10355,-0.461812zm29.6458 16.4504c-1.51418,0 -2.89725,-0.287009 -4.14804,-0.858664 -1.25197,-0.571655 -2.31379,-1.35591 -3.18544,-2.3504 -0.874019,-0.994491 -1.52363,-2.14725 -1.95001,-3.45828 -0.425198,-1.31221 -0.559844,-2.7071 -0.405119,-4.18584 0.154725,-1.47874 0.582285,-2.87363 1.28268,-4.18466 0.700396,-1.31221 1.59213,-2.46497 2.67402,-3.45946 1.08071,-0.994491 2.3067,-1.77756 3.67796,-2.3504 1.37126,-0.571655 2.81339,-0.857483 4.32757,-0.857483 1.37245,0 2.66694,0.250394 3.8823,0.752365 1.21418,0.50197 2.31024,1.22835 3.28347,2.17796l-4.61104 3.69686c-0.946066,-0.721656 -1.9819,-1.08189 -3.10867,-1.08189 -0.739372,0 -1.44095,0.140552 -2.10355,0.421655 -0.663782,0.282284 -1.24961,0.669687 -1.75985,1.16221 -0.509057,0.492521 -0.92953,1.06063 -1.26024,1.70315 -0.331891,0.642522 -0.53386,1.31575 -0.607089,2.01969 -0.0755908,0.721656 -0.0165355,1.40434 0.180709,2.04686 0.196064,0.642522 0.498427,1.20591 0.904727,1.69016 0.407482,0.483072 0.908271,0.870475 1.50237,1.16103 0.594096,0.290552 1.2626,0.435828 2.00197,0.435828 0.844491,0 1.65237,-0.193701 2.42363,-0.581104 0.771262,-0.387403 1.46693,-0.933074 2.08583,-1.63701l3.98505 3.53859c-1.23071,1.33819 -2.62796,2.37166 -4.19293,3.10277 -1.56378,0.729924 -3.19017,1.09607 -4.88033,1.09607zm11.3918 -0.634254l2.14725 -20.4898 5.67758 0 -1.61575 15.4205 10.7729 0 -0.531498 5.06931 -16.4504 0zm37.0915 -7.49884c-0.0968507,0.933074 -0.342521,1.813 -0.738191,2.63977 -0.394489,0.827955 -0.903546,1.5756 -1.52835,2.24528 -0.624805,0.668506 -1.34056,1.24489 -2.14843,1.72914 -0.807877,0.484253 -1.66536,0.858664 -2.57363,1.12205 -0.400395,0.124016 -0.805514,0.220867 -1.2189,0.290552 -0.412206,0.0708664 -0.820869,0.1063 -1.22599,0.1063 -0.403938,0 -0.80079,-0.0354332 -1.19055,-0.1063 -0.387403,-0.0696853 -0.770081,-0.166536 -1.14449,-0.290552 -0.851577,-0.263387 -1.63111,-0.637797 -2.33741,-1.12205 -0.706301,-0.484253 -1.30158,-1.06063 -1.78583,-1.72914 -0.484253,-0.669687 -0.837404,-1.41733 -1.05945,-2.24528 -0.219686,-0.826774 -0.282284,-1.7067 -0.185434,-2.63977l1.36182 -12.991 5.70356 0 -1.3252 12.6473c-0.0401576,0.387403 0.00118111,0.744097 0.125197,1.07008 0.124016,0.324804 0.305906,0.607089 0.545671,0.844491 0.238583,0.237402 0.52323,0.422836 0.852759,0.55512 0.329529,0.131103 0.679136,0.197245 1.04764,0.197245 0.387403,0 0.760632,-0.0661419 1.11733,-0.197245 0.357875,-0.132284 0.680317,-0.317718 0.969688,-0.55512 0.28819,-0.237402 0.529136,-0.519687 0.721656,-0.844491 0.19252,-0.325985 0.30945,-0.682679 0.349607,-1.07008l1.3252 -12.6473 5.70356 0 -1.36182 12.991zm14.9504 7.49884l-11.6174 0 2.14725 -20.4898 10.7197 0c0.387403,0 0.783073,0.0484253 1.18701,0.145276 0.402757,0.0968507 0.793703,0.237402 1.17048,0.421655 0.375592,0.185434 0.722837,0.400395 1.04055,0.647246 0.316536,0.246851 0.583466,0.519687 0.799609,0.818507 0.383859,0.527954 0.660238,1.11851 0.830318,1.7693 0.170079,0.650789 0.217324,1.32048 0.146457,2.0067 -0.0838585,0.792522 -0.321261,1.55315 -0.714569,2.28426 -0.393308,0.729924 -0.917719,1.3689 -1.57441,1.91457 0.361418,0.24567 0.687404,0.545671 0.975594,0.897641 0.289371,0.35197 0.525592,0.739372 0.709845,1.16103 0.185434,0.422836 0.32008,0.866932 0.401576,1.33347 0.0838585,0.466537 0.102756,0.920082 0.0566931,1.36063 -0.0814963,0.774806 -0.303544,1.50945 -0.667325,2.20394 -0.363781,0.695671 -0.83268,1.30276 -1.40552,1.82245 -0.574018,0.519687 -1.2189,0.933074 -1.93938,1.24134 -0.718112,0.308269 -1.47402,0.461812 -2.26654,0.461812zm-0.844491 -16.3713l-3.67088 0 -0.43819 4.17285 3.67088 0c0.563388,0 1.07363,-0.207875 1.53071,-0.621262 0.457088,-0.413387 0.71575,-0.902365 0.774806,-1.46575 0.0578742,-0.563388 -0.0968507,-1.05118 -0.467718,-1.46457 -0.370867,-0.414568 -0.836223,-0.621262 -1.39961,-0.621262zm-0.643703 7.89569l-3.85513 0 -0.434647 4.14568 3.85513 0c0.581104,0 1.09607,-0.20315 1.54252,-0.60827 0.447639,-0.403938 0.702758,-0.897641 0.762995,-1.47874 0.0590553,-0.562206 -0.0933074,-1.04646 -0.455907,-1.45158 -0.361418,-0.405119 -0.833861,-0.607089 -1.41497,-0.607089z"/>
   <path id="_633625872" class="fil2" d="M139.809 273.058l-0.676774 -1.51182c-1.58977,0.942523 -3.26694,1.6252 -5.03269,2.04804 -1.76457,0.422836 -3.5256,0.634254 -5.28073,0.634254 -2.04804,0 -4.03466,-0.284647 -5.95986,-0.85394 -1.9252,-0.568112 -3.67678,-1.42205 -5.25238,-2.55946 -1.27087,-0.942523 -2.3882,-2.0315 -3.35316,-3.26694 -0.964964,-1.23544 -1.74804,-2.57599 -2.35158,-4.02167 -0.602364,-1.44685 -1.02638,-2.96694 -1.27323,-4.55907 -0.246851,-1.59331 -0.287009,-3.21851 -0.120473,-4.87561 0.27756,-2.76379 1.07363,-5.35513 2.38938,-7.77758 1.31693,-2.42127 2.97403,-4.53427 4.976,-6.33782 2.00079,-1.80473 4.28151,-3.22678 6.83979,-4.26616 2.55946,-1.04055 5.21931,-1.56024 7.98191,-1.56024 2.76379,0 5.31852,0.527954 7.66656,1.58386 2.34804,1.05709 4.34056,2.49568 5.97758,4.31576 1.63938,1.82008 2.863,3.94962 3.6756,6.38742 0.81142,2.4378 1.07835,5.03742 0.80079,7.80121 -0.201969,2.01497 -0.690947,3.97324 -1.46811,5.87482 -0.774806,1.90158 -1.81418,3.68151 -3.1193,5.3386l3.23505 7.60632 -9.65436 0zm-7.98073 -28.8154c-1.39725,0 -2.74135,0.268111 -4.02993,0.804333 -1.28859,0.536222 -2.43544,1.26733 -3.4382,2.1945 -1.00276,0.925987 -1.82717,2.01497 -2.47206,3.26694 -0.647246,1.25079 -1.03937,2.57599 -1.17992,3.97324 -0.142914,1.43032 -0.0177166,2.77087 0.376773,4.02285 0.394489,1.25079 0.999216,2.34804 1.81536,3.29056 0.813782,0.942523 1.81418,1.6819 2.9941,2.21812 1.18229,0.536222 2.50394,0.805514 3.96734,0.805514 0.974413,0 1.95473,-0.138189 2.94214,-0.414568 0.986224,-0.276379 1.91575,-0.707483 2.78741,-1.29213l-1.29095 -3.17009 4.58269 0c1.17992,-1.72205 1.86615,-3.52678 2.05512,-5.41183 0.140552,-1.39725 0.0129922,-2.71418 -0.383859,-3.94962 -0.396852,-1.23426 -1.00276,-2.32324 -1.81772,-3.26576 -0.816144,-0.942523 -1.813,-1.69016 -2.99292,-2.24292 -1.17992,-0.552758 -2.48505,-0.829136 -3.91537,-0.829136zm55.7884 14.9682c-0.172441,1.72323 -0.620081,3.34844 -1.34292,4.87561 -0.721656,1.52835 -1.65709,2.90906 -2.80395,4.1445 -1.14804,1.23544 -2.46733,2.29961 -3.95434,3.19371 -1.48701,0.894097 -3.06733,1.58504 -4.74214,2.07284 -0.738191,0.226772 -1.48701,0.4063 -2.24764,0.536222 -0.761813,0.129922 -1.51536,0.194883 -2.263,0.194883 -0.74764,0 -1.48111,-0.0649608 -2.19804,-0.194883 -0.718112,-0.129922 -1.42323,-0.30945 -2.11654,-0.536222 -1.5756,-0.487797 -3.01891,-1.17874 -4.32639,-2.07284 -1.30748,-0.894097 -2.41182,-1.95827 -3.31064,-3.19371 -0.900003,-1.23544 -1.55906,-2.61615 -1.97363,-4.1445 -0.415749,-1.52717 -0.537403,-3.15237 -0.364962,-4.87561l2.40828 -23.9883 10.5319 0 -2.3445 23.3552c-0.0720475,0.714569 0.00826774,1.37245 0.240946,1.97363 0.231497,0.602364 0.569293,1.12205 1.01339,1.56024 0.442915,0.439371 0.969688,0.780711 1.57914,1.02402 0.609451,0.244489 1.25552,0.366143 1.9382,0.366143 0.71575,0 1.40197,-0.121654 2.06103,-0.366143 0.656695,-0.243308 1.25197,-0.584648 1.78465,-1.02402 0.531498,-0.43819 0.973231,-0.957877 1.3252,-1.56024 0.353151,-0.601183 0.56575,-1.25906 0.637797,-1.97363l2.3445 -23.3552 10.5319 0 -2.40828 23.9883zm4.50946 13.8473l3.79844 -37.8356 10.1906 0 -3.79844 37.8356 -10.1906 0zm15.065 0l3.79844 -37.8356 10.4835 0 -2.85828 28.4741 19.8922 0 -0.94016 9.36145 -30.3757 0zm62.0683 0l1.95355 -19.454 -9.43586 13.3595c-0.115748,0.194883 -0.291733,0.324804 -0.526773,0.389765 -0.232678,0.0649608 -0.432285,0.0980318 -0.594096,0.0980318 -0.194883,0 -0.402757,-0.033071 -0.624805,-0.0980318 -0.219686,-0.0649608 -0.369686,-0.194883 -0.44882,-0.389765l-6.7512 -13.3595 -1.95355 19.454 -9.89767 0 3.79844 -37.8356 9.26342 0c0.324804,0 0.585829,0.146457 0.784254,0.43819l7.46931 14.9693 10.5225 -14.9693c0.2563,-0.291733 0.531498,-0.43819 0.824412,-0.43819l9.31302 0 -3.79844 37.8356 -9.89767 0zm15.7489 0l3.79844 -37.8356 30.1808 0 -0.905908 9.02011 -20.3327 0 -0.543309 5.41183 19.1623 0 -0.904727 9.02011 -19.1623 0 -0.543309 5.41183 20.3327 0 -0.901184 8.97168 -30.1808 0zm49.4683 1.17048c-2.53465,0 -5.01498,-0.301182 -7.44097,-0.902365 -2.42717,-0.601183 -4.72442,-1.43859 -6.89175,-2.51103 -0.0649608,0 -0.220867,-0.0649608 -0.467718,-0.194883 -0.244489,-0.162993 -0.3626,-0.276379 -0.355513,-0.34134 0.00236221,-0.033071 0.0803152,-0.162993 0.233859,-0.389765 0.152363,-0.227953 0.343702,-0.5126 0.572836,-0.85394 0.229135,-0.34134 0.496065,-0.731105 0.80079,-1.1693 0.303544,-0.439371 0.60827,-0.88583 0.914176,-1.34174 0.643703,-0.909452 1.24961,-1.77166 1.8189,-2.58426 0.569293,-0.812601 0.969688,-1.39725 1.2,-1.75512 0.407482,0.162993 0.793703,0.357875 1.16103,0.585829 1.66654,0.877562 3.36261,1.55197 5.08702,2.02323 1.72441,0.471261 3.57757,0.706301 5.56065,0.706301 0.552758,0 1.14804,-0.0236221 1.78701,-0.0720475 0.637797,-0.0496065 1.22717,-0.17126 1.76693,-0.366143 0.540947,-0.194883 1.0004,-0.496065 1.38308,-0.902365 0.381497,-0.4063 0.610632,-0.98268 0.686223,-1.73032 0.0354332,-0.357875 -0.0307088,-0.674412 -0.198426,-0.95079 -0.166536,-0.276379 -0.386222,-0.520868 -0.656695,-0.731105 -0.271654,-0.211418 -0.561025,-0.399214 -0.871656,-0.561025 -0.308269,-0.162993 -0.603545,-0.292914 -0.887011,-0.389765 -0.655514,-0.261024 -1.33583,-0.455907 -2.03741,-0.585829 -0.701577,-0.129922 -1.40197,-0.276379 -2.10119,-0.43819 -0.918901,-0.227953 -1.82481,-0.439371 -2.71536,-0.634254 -0.890554,-0.194883 -1.74567,-0.422836 -2.56536,-0.682679 -0.851577,-0.259843 -1.65827,-0.54449 -2.42363,-0.852759 -0.766538,-0.30945 -1.4693,-0.674412 -2.10946,-1.09725 -1.31221,-0.845672 -2.31261,-1.97481 -3.00001,-3.38859 -0.686223,-1.41378 -0.911814,-3.29174 -0.676774,-5.63151 0.0814963,-0.812601 0.251576,-1.63347 0.514962,-2.46261 0.261024,-0.829136 0.60827,-1.61693 1.04174,-2.36457 0.86457,-1.49528 1.91575,-2.73072 3.15119,-3.70513 1.23544,-0.975594 2.57127,-1.73977 4.00749,-2.29253 1.43741,-0.551577 2.93151,-0.942523 4.4823,-1.1693 1.54961,-0.227953 3.08977,-0.34134 4.61694,-0.34134 2.50276,0 4.94293,0.300001 7.3205,0.901184 2.37757,0.602364 4.60395,1.58504 6.67679,2.9504 -0.95079,1.36536 -1.87205,2.70591 -2.76851,4.02285 -0.89646,1.31575 -1.80237,2.65631 -2.72009,4.02167 -1.7941,-0.909452 -3.54686,-1.65709 -5.26065,-2.24292 -1.7126,-0.584648 -3.59292,-0.877562 -5.63978,-0.877562 -0.487797,0 -1.00276,0.0248032 -1.54371,0.0732286 -0.540947,0.0496065 -1.05,0.17126 -1.52363,0.366143 -0.474805,0.194883 -0.877562,0.479529 -1.20709,0.852759 -0.33071,0.374411 -0.526773,0.869294 -0.588191,1.48701 -0.0460631,0.455907 0.0129922,0.845672 0.174804,1.17048 0.19252,0.357875 0.574018,0.674412 1.14922,0.95079 0.572836,0.276379 1.28741,0.527954 2.14135,0.755908 0.855121,0.227953 1.79174,0.446458 2.80985,0.657876 1.02048,0.211418 2.08347,0.462994 3.19135,0.755908 1.07599,0.292914 2.1567,0.625986 3.23977,0.999216 1.08426,0.374411 2.09528,0.829136 3.0319,1.36536 0.938979,0.536222 1.76103,1.17048 2.46733,1.90158 0.707483,0.731105 1.23662,1.60158 1.59095,2.60906 0.281103,0.74764 0.445277,1.55197 0.488978,2.413 0.0437009,0.861026 0.022441,1.71497 -0.0625986,2.55946 -0.248032,2.47087 -0.954334,4.50238 -2.12245,6.09451 -1.16811,1.59331 -2.61024,2.85237 -4.32875,3.77954 -1.71733,0.925987 -3.62009,1.57678 -5.70474,1.95001 -2.08583,0.374411 -4.15277,0.561025 -6.20081,0.561025z"/>
  </g>
  <path class="fil2" d="M305.673 82.3007l-0.43819 -0.977956c-1.02874,0.609451 -2.113,1.05118 -3.25395,1.32402 -1.14213,0.272836 -2.27953,0.409844 -3.41458,0.409844 -1.3252,0 -2.60906,-0.184253 -3.85513,-0.551577 -1.24489,-0.367324 -2.37639,-0.920082 -3.39568,-1.65473 -0.82205,-0.609451 -1.54489,-1.31457 -2.16851,-2.113 -0.623624,-0.798428 -1.13032,-1.66536 -1.52008,-2.6008 -0.389765,-0.935436 -0.663782,-1.91812 -0.823231,-2.94804 -0.159449,-1.02992 -0.185434,-2.08111 -0.077953,-3.15237 0.179528,-1.78701 0.69449,-3.463 1.54489,-5.02915 0.850396,-1.56615 1.92284,-2.93151 3.21733,-4.09844 1.29449,-1.16693 2.76851,-2.08583 4.42324,-2.75906 1.65473,-0.672049 3.37442,-1.00866 5.16143,-1.00866 1.78583,0 3.43938,0.34134 4.9571,1.0252 1.5189,0.682679 2.80749,1.61221 3.86576,2.78977 1.05945,1.17638 1.85079,2.55355 2.37639,4.13033 0.524411,1.5756 0.696853,3.25749 0.517324,5.0445 -0.129922,1.30276 -0.446458,2.56891 -0.948428,3.79844 -0.50197,1.22953 -1.17402,2.38111 -2.01733,3.45237l2.09174 4.91931 -6.24215 0zm-5.16143 -18.6331c-0.903546,0 -1.77166,0.172441 -2.60552,0.519687 -0.833861,0.347245 -1.57441,0.819688 -2.22284,1.41851 -0.649608,0.598821 -1.18229,1.30394 -1.59922,2.113 -0.418112,0.809058 -0.672049,1.66536 -0.762995,2.56891 -0.0921263,0.924806 -0.0118111,1.79174 0.243308,2.6008 0.255119,0.810239 0.646065,1.5189 1.17402,2.12835 0.526773,0.609451 1.17284,1.0878 1.93701,1.43504 0.762995,0.346064 1.61812,0.519687 2.56418,0.519687 0.630711,0 1.26496,-0.088583 1.90276,-0.268111 0.637797,-0.178347 1.23898,-0.457088 1.80237,-0.835042l-0.835042 -2.04922 2.9634 0c0.764176,-1.11378 1.20709,-2.28072 1.32874,-3.49962 0.0909452,-0.903546 0.00826774,-1.75512 -0.248032,-2.55355 -0.2563,-0.798428 -0.647246,-1.50355 -1.1752,-2.113 -0.526773,-0.609451 -1.17166,-1.09252 -1.93465,-1.4504 -0.762995,-0.356694 -1.60749,-0.535041 -2.53229,-0.535041zm36.0745 9.67916c-0.112205,1.11378 -0.401576,2.16497 -0.868113,3.15237 -0.467718,0.987405 -1.07244,1.8815 -1.81418,2.67993 -0.741735,0.798428 -1.59449,1.48701 -2.55591,2.06457 -0.96142,0.578742 -1.98426,1.0252 -3.06733,1.34056 -0.477167,0.146457 -0.96142,0.262206 -1.45276,0.346064 -0.492521,0.0850396 -0.980318,0.126378 -1.46339,0.126378 -0.483072,0 -0.956696,-0.0413387 -1.42205,-0.126378 -0.464175,-0.0838585 -0.920082,-0.199607 -1.36772,-0.346064 -1.01929,-0.315355 -1.95237,-0.761813 -2.79804,-1.34056 -0.845672,-0.577561 -1.55906,-1.26615 -2.14135,-2.06457 -0.582285,-0.798428 -1.00748,-1.69253 -1.27559,-2.67993 -0.269292,-0.987405 -0.347245,-2.03859 -0.23504,-3.15237l1.5567 -15.5126 6.81026 0 -1.51654 15.1028c-0.0460631,0.461812 0.00590553,0.887011 0.155906,1.27678 0.15,0.388584 0.368505,0.725199 0.655514,1.00866 0.287009,0.283465 0.627167,0.504332 1.02166,0.661419 0.393308,0.158268 0.81142,0.237402 1.25315,0.237402 0.461812,0 0.905908,-0.0791341 1.33111,-0.237402 0.426379,-0.157087 0.81142,-0.377954 1.15512,-0.661419 0.343702,-0.283465 0.62953,-0.620081 0.857483,-1.00866 0.227953,-0.389765 0.366143,-0.814963 0.412206,-1.27678l1.51536 -15.1028 6.81026 0 -1.5567 15.5126zm2.91615 8.95397l2.45552 -24.4666 6.58939 0 -2.45552 24.4666 -6.58939 0zm9.74176 0l2.45552 -24.4666 6.77837 0 -1.84725 18.4123 12.8634 0 -0.60827 6.05435 -19.6418 0zm40.1352 0l1.2626 -12.58 -6.10041 8.63861c-0.0755908,0.126378 -0.188977,0.210237 -0.340159,0.251576 -0.152363,0.0425198 -0.279922,0.0637797 -0.385041,0.0637797 -0.126378,0 -0.261024,-0.0212599 -0.403938,-0.0637797 -0.142914,-0.0413387 -0.239765,-0.125197 -0.289371,-0.251576l-4.36655 -8.63861 -1.2626 12.58 -6.40041 0 2.45552 -24.4666 5.99057 0c0.210237,0 0.379135,0.0944885 0.506695,0.284647l4.82954 9.67798 6.80435 -9.67798c0.166536,-0.190158 0.343702,-0.284647 0.53386,-0.284647l6.02128 0 -2.45552 24.4666 -6.40041 0zm10.1835 0l2.45552 -24.4666 19.5166 0 -0.585829 5.83348 -13.1469 0 -0.35197 3.49962 12.391 0 -0.585829 5.8323 -12.3898 0 -0.35197 3.49962 13.1469 0 -0.581104 5.80159 -19.5166 0zm31.9879 0.755908c-1.63938,0 -3.24332,-0.193701 -4.81183,-0.583466 -1.56969,-0.388584 -3.05434,-0.92953 -4.45631,-1.62284 -0.0425198,0 -0.142914,-0.0425198 -0.302363,-0.126378 -0.158268,-0.105118 -0.23504,-0.178347 -0.230316,-0.220867 0.00236221,-0.0212599 0.0531498,-0.105118 0.151182,-0.252757 0.0992129,-0.146457 0.223229,-0.33071 0.370867,-0.551577 0.148819,-0.220867 0.321261,-0.472442 0.517324,-0.755908 0.197245,-0.284647 0.393308,-0.572836 0.591734,-0.866932 0.415749,-0.589372 0.807877,-1.14567 1.17638,-1.67127 0.368505,-0.525592 0.627167,-0.903546 0.775987,-1.13504 0.262206,0.105118 0.5126,0.231497 0.750002,0.377954 1.07835,0.568112 2.17442,1.00394 3.28938,1.30867 1.11496,0.304725 2.31379,0.457088 3.59647,0.457088 0.356694,0 0.741735,-0.0153544 1.15512,-0.0472442 0.413387,-0.0318899 0.793703,-0.109843 1.14331,-0.236221 0.348426,-0.126378 0.646065,-0.321261 0.894097,-0.583466 0.246851,-0.263387 0.394489,-0.635435 0.442915,-1.11969 0.0236221,-0.230316 -0.0188977,-0.435828 -0.127559,-0.614175 -0.108662,-0.178347 -0.250394,-0.336615 -0.425198,-0.473624 -0.175985,-0.135827 -0.363781,-0.257481 -0.563388,-0.3626 -0.199607,-0.105118 -0.389765,-0.188977 -0.572836,-0.251576 -0.425198,-0.168898 -0.86457,-0.294095 -1.31811,-0.377954 -0.453545,-0.0850396 -0.907089,-0.179528 -1.35827,-0.284647 -0.595277,-0.146457 -1.17992,-0.283465 -1.7563,-0.409844 -0.57638,-0.126378 -1.12914,-0.272836 -1.65827,-0.440553 -0.550395,-0.168898 -1.07363,-0.353151 -1.56851,-0.552758 -0.494883,-0.199607 -0.949609,-0.435828 -1.363,-0.708664 -0.849215,-0.546852 -1.49528,-1.27678 -1.93938,-2.19095 -0.445277,-0.915357 -0.590553,-2.12835 -0.439371,-3.64253 0.0531498,-0.524411 0.164174,-1.05591 0.333072,-1.59213 0.170079,-0.535041 0.394489,-1.04528 0.674412,-1.52835 0.558663,-0.967326 1.23898,-1.76575 2.03741,-2.39646 0.798428,-0.630711 1.663,-1.12441 2.59253,-1.48111 0.928349,-0.357875 1.89449,-0.610632 2.89725,-0.757089 1.00276,-0.147638 1.99843,-0.220867 2.98584,-0.220867 1.61812,0 3.19607,0.194883 4.73387,0.583466 1.53662,0.388584 2.97639,1.02402 4.31694,1.90749 -0.614175,0.882286 -1.21063,1.74922 -1.79056,2.6008 -0.578742,0.851577 -1.16575,1.71851 -1.75867,2.6008 -1.15985,-0.588191 -2.29371,-1.07126 -3.40159,-1.4504 -1.1067,-0.377954 -2.32324,-0.566931 -3.64726,-0.566931 -0.315355,0 -0.647246,0.0153544 -0.998035,0.0472442 -0.349607,0.0318899 -0.677955,0.109843 -0.985042,0.236221 -0.307088,0.126378 -0.566931,0.310631 -0.780711,0.551577 -0.212599,0.242127 -0.340159,0.562206 -0.380316,0.96142 -0.0295277,0.295277 0.00826774,0.546852 0.113386,0.757089 0.124016,0.231497 0.372048,0.435828 0.742916,0.615356 0.370867,0.178347 0.83268,0.34134 1.38544,0.487797 0.552758,0.147638 1.15867,0.289371 1.81654,0.426379 0.659057,0.135827 1.34764,0.29882 2.06339,0.487797 0.695671,0.190158 1.39489,0.405119 2.09528,0.647246 0.700396,0.240946 1.35473,0.535041 1.96064,0.882286 0.605907,0.347245 1.13741,0.757089 1.59449,1.22953 0.457088,0.473624 0.80079,1.03583 1.02874,1.68662 0.183071,0.484253 0.28819,1.00394 0.316536,1.56142 0.0283465,0.556301 0.0153544,1.10788 -0.0401576,1.65473 -0.16063,1.59686 -0.617718,2.91143 -1.37245,3.94135 -0.754727,1.02992 -1.6878,1.84371 -2.79922,2.44253 -1.11142,0.600002 -2.34095,1.02048 -3.68978,1.26142 -1.34764,0.242127 -2.68465,0.3626 -4.00867,0.3626z"/>
  <path class="fil1" d="M462.965 82.3007l-0.922444 -3.37442 -7.53546 0 -1.59922 3.37442 -6.90475 0 11.504 -24.4666 5.7697 0 6.59293 24.4666 -6.90475 0zm-3.45592 -15.5126l-2.60316 6.46301 3.87757 0 -1.27441 -6.46301zm22.9276 15.9532c-1.80827,0 -3.46064,-0.34134 -4.9571,-1.02402 -1.49764,-0.68386 -2.76969,-1.6193 -3.81733,-2.80631 -1.04764,-1.18819 -1.82835,-2.56418 -2.3445,-4.13033 -0.514962,-1.56615 -0.68386,-3.23151 -0.506695,-4.99726 0.177166,-1.76575 0.680317,-3.43111 1.50945,-4.99726 0.830318,-1.56615 1.88859,-2.94214 3.17363,-4.13033 1.28622,-1.18701 2.74607,-2.12245 4.38072,-2.80513 1.63465,-0.68386 3.35552,-1.0252 5.16261,-1.0252 1.63938,0 3.18544,0.300001 4.63938,0.898822 1.45276,0.598821 2.76379,1.46575 3.9319,2.6008l-5.48742 4.41379c-1.13268,-0.861026 -2.37166,-1.29213 -3.71694,-1.29213 -0.882286,0 -1.71969,0.167717 -2.50985,0.504332 -0.79016,0.336615 -1.48819,0.798428 -2.0941,1.38662 -0.604726,0.589372 -1.10433,1.26733 -1.49646,2.03386 -0.392127,0.767719 -0.630711,1.57087 -0.714569,2.41182 -0.0862207,0.862207 -0.01063,1.67599 0.227953,2.44371 0.237402,0.766538 0.601183,1.43977 1.08898,2.01733 0.488978,0.578742 1.08898,1.04055 1.80001,1.3878 0.712207,0.346064 1.50827,0.519687 2.39174,0.519687 1.00866,0 1.97245,-0.230316 2.89135,-0.693309 0.918901,-0.461812 1.74567,-1.11378 2.4815,-1.95473l4.77876 4.22482c-1.46339,1.59686 -3.12757,2.83229 -4.99135,3.70395 -1.86379,0.872837 -3.80434,1.30867 -5.82167,1.30867z"/>
  <g id="_570190400">
   <path id="_573046776" class="fil3" d="M3.92836 114.659c11.9705,-0.0212599 23.4485,-2.16969 33.958,-8.5264 10.1044,6.00829 21.4288,8.85121 33.9698,8.5264 3.27521,29.8312 -7.97128,53.321 -33.7395,70.4695 -20.8666,-15 -37.0903,-34.16 -34.1883,-70.4695z"/>
   <path id="_570187448" class="fil2" d="M3.92836 111.774c5.75081,-0.01063 11.3953,-0.53386 16.8709,-1.82008 5.39057,-1.26615 10.6087,-3.28584 15.5918,-6.30002l1.48111 -0.894097 1.48465 0.882286c4.81183,2.86064 9.9142,4.97009 15.3024,6.32246 5.42364,1.36063 11.1355,1.963 17.1284,1.80945l2.65276 -0.0685042 0.290552 2.64804c1.69607,15.4477 -0.388584,29.2973 -6.24923,41.5407 -5.85474,12.2292 -15.4453,22.78 -28.7694,31.6454l-1.65473 1.10079 -1.62638 -1.16811c-10.7398,-7.71971 -20.3044,-16.5426 -26.8454,-28.1729 -6.56695,-11.6764 -10.0441,-26.0824 -8.54294,-44.8655l0.21378 -2.65395 2.67166 -0.00590553zm18.1831 3.81615c-5.02324,1.17992 -10.1965,1.76221 -15.4725,1.91457 -0.894097,16.2402 2.26654,28.7788 7.99491,38.9659 5.73309,10.1941 14.0835,18.1371 23.5383,25.1269 11.5855,-8.03861 19.9548,-17.4367 25.1032,-28.1918 5.05513,-10.5603 7.04057,-22.5083 5.95514,-35.8371 -5.56419,-0.0507876 -10.891,-0.713388 -15.9745,-1.98898 -5.38348,-1.35355 -10.5048,-3.38859 -15.3591,-6.10159 -5.07285,2.86536 -10.3524,4.83663 -15.7855,6.11222z"/>
   <path id="_570190568" class="fil4" d="M24.4017 146.56l1.99371 0.199607c-0.255119,-2.80513 -2.61497,-5.00435 -5.48624,-5.00435 -3.04135,0 -5.50868,2.46615 -5.50868,5.50868 0,3.04253 2.46733,5.5075 5.50868,5.5075 2.10001,0 3.926,-1.17402 4.85435,-2.90316l-1.76575 -0.170079 0.403938 -3.1382z"/>
   <path id="_608084648" class="fil4" d="M20.9091 156.276c3.89883,0 7.21892,-2.47678 8.47562,-5.94214l2.59135 0.258662 0.402757 -3.13938 -2.45906 -0.239765c-0.0271654,-4.95356 -4.05119,-8.96105 -9.01066,-8.96105 -4.97718,0 -9.01066,4.03584 -9.01066,9.01184 0,4.976 4.03348,9.01184 9.01066,9.01184z"/>
   <polygon id="_608090912" class="fil4" points="40.9123,136.245 35.6304,132.344 37.1222,138.723 "/>
   <polygon id="_608085824" class="fil4" points="49.6655,138.365 46.6135,140.36 43.3383,137.997 37.7871,141.625 38.7048,145.528 35.7296,147.473 32.0647,130.05 35.0292,128.112 "/>
   <path id="_608090240" class="fil4" d="M54.4006 116.814c1.0689,0 2.09292,0.185434 3.04371,0.526773l-1.49764 3.22206c-0.490159,-0.144095 -1.00866,-0.222048 -1.54607,-0.222048 -3.03662,0 -5.49923,2.46261 -5.49923,5.50041 0,3.03662 2.46261,5.49923 5.49923,5.49923 2.49922,0 4.60749,-1.66654 5.27718,-3.94962l3.61655 0.0165355c-0.742916,4.23899 -4.44214,7.46223 -8.89373,7.46223 -4.98545,0 -9.02837,-4.04293 -9.02837,-9.02837 0,-4.98545 4.04293,-9.02719 9.02837,-9.02719z"/>
   <path id="_570189152" class="fil5" d="M5.79923 141.922l45.4938 -29.8843c5.17324,1.55434 10.6111,2.42363 16.3099,2.61024l4.3949 1.39607 0.370867 5.85829c0.0980318,3.21497 0.0141733,6.35081 -0.249213,9.40751l-53.9978 35.4698c-5.56537,-6.98034 -9.88704,-15.0733 -12.3225,-24.8576z"/>
   <path id="_570187832" class="fil3 str0" d="M25.1646 147.004l1.99371 0.199607c-0.255119,-2.80631 -2.61379,-5.00553 -5.48624,-5.00553 -3.04135,0 -5.5075,2.46733 -5.5075,5.50986 0,3.04135 2.46615,5.5075 5.5075,5.5075 2.10001,0 3.926,-1.1752 4.85435,-2.90434l-1.76575 -0.170079 0.403938 -3.13702zm-3.49253 9.71578c3.89883,0 7.21892,-2.47678 8.47562,-5.94333l2.59135 0.259843 0.402757 -3.13938 -2.45906 -0.240946c-0.0271654,-4.95238 -4.05119,-8.95987 -9.01066,-8.95987 -4.976,0 -9.01066,4.03466 -9.01066,9.01184 0,4.976 4.03466,9.01184 9.01066,9.01184zm20.0032 -20.0304l-5.28191 -3.90237 1.49174 6.37915 3.79017 -2.47678zm8.75318 2.1189l-3.05198 1.99489 -3.27403 -2.36339 -5.55238 3.62836 0.917719 3.90356 -2.97521 1.9441 -3.66497 -17.4225 2.96458 -1.9382 14.6363 10.2532zm4.73505 -21.5516c1.0689,0 2.09292,0.186615 3.04371,0.526773l-1.49764 3.22206c-0.490159,-0.142914 -1.00866,-0.220867 -1.54607,-0.220867 -3.03662,0 -5.49923,2.46261 -5.49923,5.50041 0,3.03544 2.46261,5.49805 5.49923,5.49805 2.49922,0 4.60749,-1.66536 5.27718,-3.94844l3.61537 0.0165355c-0.741735,4.23781 -4.44096,7.46105 -8.89255,7.46105 -4.98545,0 -9.02837,-4.04175 -9.02837,-9.02719 0,-4.98545 4.04293,-9.02837 9.02837,-9.02837z"/>
  </g>
  <g id="_569216176">
   <path id="_567591784" class="fil3" d="M4.86498 229.842c14.2642,-0.0259843 27.9426,-2.58662 40.4647,-10.1611 12.0414,7.16105 25.5355,10.5485 40.48,10.1611 3.90356,35.5466 -9.49846,63.5388 -40.2049,83.9743 -24.8646,-17.8749 -44.197,-40.708 -40.7399,-83.9743z"/>
   <path id="_573043560" class="fil2" d="M4.86498 226.404c6.85396,-0.0129922 13.5792,-0.636616 20.1036,-2.16969 6.42404,-1.50827 12.6426,-3.91537 18.58,-7.50711l1.76457 -1.06536 1.7693 1.05237c5.73309,3.40867 11.8146,5.92207 18.2351,7.53309 6.46301,1.62166 13.2697,2.33977 20.4107,2.1567l3.16182 -0.0814963 0.344883 3.15592c2.02087,18.4064 -0.461812,34.91 -7.44687,49.5013 -6.97679,14.5713 -18.404,27.1442 -34.2816,37.708l-1.97127 1.31221 -1.9382 -1.39134c-12.7985,-9.19964 -24.1961,-19.7127 -31.9903,-33.5718 -7.82601,-13.9146 -11.9681,-31.0808 -10.18,-53.4639l0.253938 -3.163 3.18426 -0.00590553zm21.6674 4.54726c-5.98585,1.40552 -12.15,2.10001 -18.4371,2.28072 -1.06654,19.3536 2.70001,34.2946 9.52798,46.434 6.83034,12.1465 16.7812,21.6119 28.0477,29.941 13.8048,-9.57759 23.778,-20.778 29.9139,-33.593 6.02364,-12.5847 8.39058,-26.8229 7.09609,-42.7064 -6.62955,-0.0590553 -12.9768,-0.849215 -19.0347,-2.3693 -6.41577,-1.61221 -12.5185,-4.03702 -18.3036,-7.27089 -6.0449,3.41458 -12.3355,5.76262 -18.8103,7.28388z"/>
   <path id="_573046464" class="fil4" d="M29.2619 267.856l2.3752 0.237402c-0.304725,-3.34371 -3.11458,-5.96459 -6.53742,-5.96459 -3.62363,0 -6.56341,2.94095 -6.56341,6.56577 0,3.62481 2.93977,6.56341 6.56341,6.56341 2.50158,0 4.67836,-1.40079 5.78506,-3.46064l-2.10473 -0.20315 0.481891 -3.7382z"/>
   <path id="_573043656" class="fil4" d="M25.0997 279.433c4.64529,0 8.602,-2.95277 10.0996,-7.08191l3.08859 0.30945 0.479529 -3.74056 -2.93032 -0.287009c-0.033071,-5.90199 -4.82836,-10.6784 -10.7374,-10.6784 -5.93033,0 -10.7374,4.80946 -10.7374,10.7398 0,5.93033 4.8071,10.7386 10.7374,10.7386z"/>
   <polygon id="_573043032" class="fil4" points="48.9368,255.564 42.6427,250.915 44.4202,258.517 "/>
   <polygon id="_570189368" class="fil4" points="59.3671,258.089 55.7305,260.467 51.8281,257.651 45.2127,261.974 46.3053,266.625 42.7608,268.943 38.3942,248.181 41.9257,245.872 "/>
   <path id="_570188504" class="fil4" d="M65.0093 232.409c1.27323,0 2.4945,0.220867 3.62718,0.627167l-1.78465 3.83978c-0.583466,-0.17126 -1.20237,-0.263387 -1.84253,-0.263387 -3.61773,0 -6.55278,2.93387 -6.55278,6.55396 0,3.61773 2.93505,6.55278 6.55278,6.55278 2.97757,0 5.49096,-1.98544 6.28939,-4.70553l4.30749 0.0188977c-0.884648,5.05041 -5.29254,8.89137 -10.5969,8.89137 -5.94096,0 -10.7575,-4.81655 -10.7575,-10.7575 0,-5.94096 4.81655,-10.7575 10.7575,-10.7575z"/>
   <path id="_570188672" class="fil5" d="M7.0949 262.328l54.2116 -35.6115c6.16419,1.85316 12.6449,2.88899 19.4351,3.10985l5.33388 2.72836 0.344883 5.91616c0.11693,3.83151 0.0177166,7.56853 -0.296458,11.2111l-64.3467 42.2671c-6.63073,-8.31735 -11.7804,-17.9611 -14.6823,-29.621z"/>
   <path id="_569218936" class="fil3 str0" d="M30.1702 268.384l2.37639 0.238583c-0.304725,-3.34371 -3.11576,-5.96459 -6.53742,-5.96459 -3.62363,0 -6.56341,2.93977 -6.56341,6.56459 0,3.62481 2.93977,6.56341 6.56341,6.56341 2.50158,0 4.67836,-1.39961 5.78388,-3.45946l-2.10355 -0.20315 0.48071 -3.73938zm-4.16104 11.5784c4.64529,0 8.602,-2.95158 10.0996,-7.08191l3.08859 0.308269 0.479529 -3.74056 -2.93032 -0.285828c-0.033071,-5.90199 -4.82836,-10.6784 -10.7374,-10.6784 -5.93033,0 -10.7374,4.80946 -10.7374,10.7386 0,5.93033 4.8071,10.7398 10.7374,10.7398zm23.8371 -23.869l-6.29411 -4.65001 1.77756 7.6016 4.51655 -2.95158zm10.4303 2.5252l-3.63781 2.37757 -3.90119 -2.81694 -6.61538 4.32403 1.09252 4.6512 -3.5445 2.31733 -4.36773 -20.7615 3.53269 -2.30906 17.4414 12.2174zm5.64214 -25.682c1.27323,0 2.49331,0.222048 3.62718,0.628348l-1.78465 3.83978c-0.584648,-0.17126 -1.20237,-0.263387 -1.84253,-0.263387 -3.61891,0 -6.55278,2.93387 -6.55278,6.55396 0,3.61773 2.93387,6.5516 6.55278,6.5516 2.97757,0 5.49096,-1.98544 6.28821,-4.70435l4.30749 0.0188977c-0.883467,5.05041 -5.29136,8.89137 -10.5957,8.89137 -5.94096,0 -10.7587,-4.81655 -10.7587,-10.7575 0,-5.94096 4.81773,-10.7587 10.7587,-10.7587z"/>
  </g>
  <g id="_608089496">
   <path id="_573043488" class="fil3" d="M5.04569 12.0697c4.43623,-0.00826774 8.69058,-0.804333 12.5847,-3.16064 3.74529,2.22757 7.94176,3.28111 12.5894,3.16064 1.21418,11.0552 -2.95395,19.7611 -12.5032,26.1166 -7.73388,-5.55947 -13.7457,-12.6603 -12.6709,-26.1166z"/>
   <path id="_569217808" class="fil2" d="M5.04569 10.9996c2.1319,-0.00354332 4.22364,-0.197245 6.25278,-0.674412 1.99725,-0.468899 3.9319,-1.21772 5.77797,-2.33387l0.549214 -0.331891 0.550395 0.327166c1.78229,1.06063 3.67442,1.84134 5.67049,2.34331 2.01024,0.504332 4.12797,0.727561 6.34845,0.669687l0.98268 -0.0248032 0.107481 0.981499c0.62953,5.72482 -0.142914,10.8579 -2.31615,15.3957 -2.16969,4.5319 -5.72364,8.44137 -10.6607,11.7272l-0.614175 0.407482 -0.602364 -0.432285c-3.98033,-2.86064 -7.52483,-6.13112 -9.94964,-10.441 -2.43308,-4.32757 -3.72167,-9.66617 -3.16536,-16.6276l0.0791341 -0.983861 0.989767 -0.00236221zm6.73821 1.41497c-1.86142,0.437009 -3.77836,0.653152 -5.73309,0.708664 -0.331891,6.0201 0.839766,10.6666 2.96221,14.4414 2.12481,3.77836 5.21931,6.72167 8.72365,9.31184 4.29332,-2.97875 7.39491,-6.46183 9.30357,-10.4469 1.87323,-3.91419 2.60906,-8.34215 2.20749,-13.2815 -2.06221,-0.0188977 -4.03702,-0.264568 -5.92088,-0.738191 -1.99489,-0.500789 -3.89293,-1.25552 -5.69175,-2.26064 -1.88032,1.06181 -3.83623,1.79174 -5.8512,2.26536z"/>
   <path id="_567591640" class="fil2" d="M5.04569 10.5024c1.0441,-0.00118111 2.08583,-0.0519687 3.11458,-0.158268 1.01575,-0.105118 2.02678,-0.272836 3.02481,-0.506695 0.977956,-0.229135 1.93938,-0.526773 2.87363,-0.900003 0.935436,-0.37323 1.8567,-0.829136 2.76024,-1.37481l0.549214 -0.33071 0.2563 -0.153544 0.257481 0.153544 0.546852 0.327166 0 -0.00118111c0.876381,0.519687 1.77756,0.97205 2.69174,1.34882 0.917719,0.379135 1.86851,0.692128 2.84883,0.937798 0.981499,0.246851 1.99134,0.426379 3.02245,0.535041 1.03701,0.109843 2.10473,0.15 3.19135,0.122835l0.98268 -0.0259843 0.458269 -0.0118111 0.0496065 0.457088 0.107481 0.981499c0.318899,2.90906 0.282284,5.66813 -0.108662,8.27129 -0.392127,2.60788 -1.14449,5.07403 -2.25473,7.39136 -1.10788,2.31379 -2.56654,4.46694 -4.37127,6.45356 -1.80119,1.98071 -3.95789,3.8067 -6.46419,5.47561l-0.612994 0.407482 -0.284647 0.190158 -0.281103 -0.201969 -0.602364 -0.432285c-2.01379,-1.44685 -3.91891,-3.00001 -5.62325,-4.73151 -1.71733,-1.74449 -3.23859,-3.6756 -4.47167,-5.86774 -1.24016,-2.20394 -2.19095,-4.67127 -2.75788,-7.47286 -0.564569,-2.79095 -0.752365,-5.91498 -0.468899,-9.4394l0.077953 -0.983861 0.0366143 -0.458269 0.461812 -0.00118111 0.989767 -0.00118111zm3.21615 0.833861c-1.05945,0.109843 -2.13426,0.16063 -3.21615,0.162993l-0.527954 0.00118111 -0.0413387 0.524411c-0.275198,3.43466 -0.0968507,6.46656 0.450001,9.16538 0.54449,2.6882 1.45867,5.05868 2.65158,7.17994 1.18819,2.11418 2.65631,3.9756 4.31104,5.6575 1.66654,1.69371 3.52678,3.21025 5.49332,4.62285l0.321261 0.231497 0.328347 -0.218505c2.43072,-1.61812 4.52364,-3.39096 6.27522,-5.31734 1.74567,-1.92166 3.15237,-3.9945 4.21301,-6.21026 1.06181,-2.21576 1.78347,-4.5886 2.16261,-7.11026 0.380316,-2.5252 0.414568,-5.20159 0.1063,-8.01617l-0.0578742 -0.524411 -0.524411 0.0141733c-1.1315,0.0283465 -2.24292,-0.0141733 -3.31891,-0.127559l-0.00236221 0c-1.08071,-0.114567 -2.1378,-0.301182 -3.15946,-0.558663 -1.01457,-0.253938 -2.01142,-0.583466 -2.98347,-0.985042 -0.973231,-0.401576 -1.91694,-0.874019 -2.82166,-1.41024l-0.00236221 -0.00236221 -0.291733 -0.174804 -0.292914 0.177166c-0.944885,0.570474 -1.91694,1.05 -2.9067,1.44567 -0.992129,0.395671 -1.99961,0.709845 -3.01536,0.947247 -1.02874,0.240946 -2.08229,0.414568 -3.15001,0.525592zm3.63544 1.56497c-0.947247,0.222048 -1.91103,0.389765 -2.88544,0.506695 -0.814963,0.0968507 -1.6441,0.162993 -2.48387,0.197245 -0.118111,2.7756 0.0909452,5.2512 0.571655,7.47522 0.505513,2.33505 1.31221,4.39608 2.3504,6.24096 1.04055,1.84961 2.32087,3.49844 3.76655,4.99844 1.37599,1.42678 2.9067,2.72481 4.52836,3.94135 1.98662,-1.4067 3.71104,-2.92914 5.16498,-4.56379 1.52245,-1.70906 2.7508,-3.53741 3.68033,-5.48269 0.914176,-1.91103 1.55434,-3.95434 1.91339,-6.12285l0 -0.00118111c0.337796,-2.03505 0.432285,-4.18702 0.279922,-6.45238 -1.93938,-0.0484253 -3.79962,-0.297639 -5.57836,-0.744097 -1.01339,-0.255119 -2.01142,-0.577561 -2.98466,-0.963783 -0.883467,-0.349607 -1.74686,-0.755908 -2.58544,-1.21181 -0.889373,0.487797 -1.78819,0.902365 -2.69647,1.25079 -0.998035,0.382678 -2.01379,0.690947 -3.04135,0.931893zm-3.00355 -0.485435c0.937798,-0.113386 1.86497,-0.274017 2.77678,-0.487797 0.985042,-0.230316 1.95827,-0.526773 2.91143,-0.891735 0.959058,-0.367324 1.89804,-0.805514 2.80867,-1.32048l0.244489 -0.137008 0.242127 0.134646c0.879924,0.49134 1.78583,0.923625 2.71182,1.29095 0.922444,0.366143 1.87796,0.674412 2.85946,0.921263 1.84607,0.464175 3.78308,0.706301 5.80277,0.722837l0.458269 0.00472442 0.0366143 0.454726c0.20315,2.50631 0.11693,4.89214 -0.257481,7.14569 -0.374411,2.25709 -1.04292,4.39017 -2.00079,6.39097 -0.974413,2.03741 -2.25355,3.94489 -3.83151,5.71655 -1.57441,1.76812 -3.45592,3.41222 -5.63742,4.92521l-0.291733 0.20315 -0.28819 -0.212599c-1.77166,-1.31103 -3.44411,-2.713 -4.94057,-4.26497 -1.50473,-1.56142 -2.8382,-3.27875 -3.92009,-5.20159 -1.08662,-1.92993 -1.92875,-4.08426 -2.4567,-6.51971 -0.524411,-2.42363 -0.738191,-5.13663 -0.569293,-8.19451l0.0259843 -0.457088 0.458269 -0.0141733c0.953153,-0.0271654 1.90867,-0.0956696 2.8571,-0.209056z"/>
   <path id="_567590200" class="fil4" d="M12.6331 23.8926l0.739372 0.0732286c-0.0944885,-1.03937 -0.969688,-1.85434 -2.03386,-1.85434 -1.12678,0 -2.04095,0.914176 -2.04095,2.04095 0,1.12796 0.914176,2.04213 2.04095,2.04213 0.778349,0 1.45512,-0.435828 1.79882,-1.07717l-0.654333 -0.0625986 0.15 -1.16221z"/>
   <path id="_608089640" class="fil4" d="M11.3386 27.4926c1.44567,0 2.67521,-0.917719 3.14174,-2.20276l0.960239 0.0968507 0.148819 -1.16339 -0.910633 -0.0897641c-0.01063,-1.83544 -1.50237,-3.32009 -3.34017,-3.32009 -1.84371,0 -3.33899,1.49528 -3.33899,3.33899 0,1.84489 1.49528,3.34017 3.33899,3.34017z"/>
   <polygon id="_570187544" class="fil4" points="18.7524,20.0694 16.7953,18.6237 17.3481,20.9871 "/>
   <polygon id="_573044088" class="fil4" points="21.9969,20.8548 20.8654,21.5942 19.6512,20.7178 17.5938,22.0631 17.9339,23.5099 16.8319,24.2304 15.4737,17.7733 16.5721,17.0552 "/>
   <path id="_608088632" class="fil4" d="M23.7509 12.8682c0.396852,0 0.775987,0.0685042 1.12796,0.194883l-0.55512 1.1941c-0.180709,-0.0531498 -0.37323,-0.0814963 -0.572836,-0.0814963 -1.12559,0 -2.03741,0.911814 -2.03741,2.03741 0,1.12559 0.911814,2.03859 2.03741,2.03859 0.925987,0 1.70788,-0.617718 1.95591,-1.46339l1.34056 0.00590553c-0.275198,1.57087 -1.64646,2.76497 -3.29647,2.76497 -1.84725,0 -3.34607,-1.49764 -3.34607,-3.34607 0,-1.84725 1.49882,-3.34489 3.34607,-3.34489z"/>
   <path id="_608086880" class="fil5" d="M5.28899 21.8316l17.4237 -10.9052c1.91694,0.57638 3.8197,1.07008 5.93151,1.13859l1.76575 2.6882c0.0366143,1.19174 0.186615,2.61379 0.0897641,3.74647l-19.7575 13.402c-2.06221,-2.58662 -4.5508,-6.44293 -5.45317,-10.0701z"/>
   <path id="_608088992" class="fil3" d="M12.9166 24.0568l0.738191 0.0732286c-0.0944885,-1.03937 -0.968507,-1.85434 -2.03268,-1.85434 -1.12678,0 -2.04213,0.914176 -2.04213,2.04213 0,1.12678 0.915357,2.04095 2.04213,2.04095 0.778349,0 1.45512,-0.435828 1.79882,-1.07599l-0.654333 -0.0637797 0.15 -1.16221zm-1.29449 3.60001c1.44449,0 2.67521,-0.917719 3.14056,-2.20158l0.960239 0.0956696 0.15 -1.16339 -0.911814 -0.0897641c-0.01063,-1.83544 -1.50119,-3.32009 -3.33899,-3.32009 -1.84489,0 -3.34017,1.49528 -3.34017,3.34017 0,1.84371 1.49528,3.33899 3.34017,3.33899zm7.41262 -7.42325l-1.95709 -1.44567 0.552758 2.36457 1.40434 -0.918901zm3.2445 0.785436l-1.1315 0.739372 -1.213 -0.8752 -2.05749 1.3441 0.340159 1.44685 -1.10315 0.720475 -1.35827 -6.45711 1.09843 -0.718112 5.42482 3.79962zm1.75512 -7.98664c0.395671,0 0.774806,0.0685042 1.12796,0.194883l-0.55512 1.1941c-0.18189,-0.0531498 -0.374411,-0.0814963 -0.572836,-0.0814963 -1.12559,0 -2.03859,0.912995 -2.03859,2.03859 0,1.12441 0.912995,2.03741 2.03859,2.03741 0.925987,0 1.70788,-0.617718 1.95591,-1.46339l1.33937 0.00590553c-0.275198,1.57087 -1.64646,2.76497 -3.29529,2.76497 -1.84843,0 -3.34607,-1.49764 -3.34607,-3.34489 0,-1.84843 1.49764,-3.34607 3.34607,-3.34607z"/>
   <path id="_608085056" class="fil0" d="M12.9307 23.902l0.543309 0.0543309c-0.0791341,-0.405119 -0.28819,-0.764176 -0.581104,-1.03229 -0.335434,-0.305906 -0.781892,-0.492521 -1.27087,-0.492521 -0.520868,0 -0.99331,0.211418 -1.33347,0.551577 -0.34134,0.34134 -0.552758,0.812601 -0.552758,1.33347 0,0.520868 0.211418,0.99331 0.552758,1.33347l0 0c0.340159,0.34134 0.812601,0.552758 1.33347,0.552758 0.354332,0 0.685042,-0.0968507 0.966145,-0.265749 0.22441,-0.133465 0.418112,-0.312993 0.569293,-0.524411l-0.4063 -0.0389765 -0.159449 -0.0153544 0.0212599 -0.158268 0.148819 -1.16339 0.0200788 -0.148819 0.148819 0.0141733zm0.69449 3.27875c-0.568112,0.398033 -1.25906,0.631892 -2.00316,0.631892 -0.964964,0 -1.83898,-0.392127 -2.47087,-1.02402l0 0c-0.633073,-0.633073 -1.02402,-1.50709 -1.02402,-2.47206 0,-0.963783 0.390946,-1.8378 1.02402,-2.47087l0 0c0.631892,-0.631892 1.50591,-1.02402 2.47087,-1.02402 0.960239,0 1.8319,0.388584 2.46379,1.01693 0.600002,0.59764 0.986224,1.41378 1.02638,2.31851l0.774806 0.0755908 0.159449 0.0165355 -0.0200788 0.157087 -0.148819 1.16339 -0.0188977 0.15 -0.15 -0.0153544 -0.84331 -0.0838585c-0.255119,0.633073 -0.689766,1.1752 -1.24016,1.56024l0 0zm5.13781 -6.95553l-1.43859 -1.06181 0.4063 1.73623 1.03229 -0.674412zm3.60119 0.923625l-1.1315 0.739372 -0.088583 0.0590553 -0.0862207 -0.0625986 -1.12678 -0.813782 -1.87796 1.22717 0.315355 1.34056 0.0248032 0.1063 -0.0909452 0.0590553 -1.10315 0.720475 -0.190158 0.125197 -0.0472442 -0.223229 -1.35827 -6.45711 -0.0212599 -0.103937 1.18701 -0.775987 0.088583 -0.0566931 5.50986 3.85985 0.188977 0.131103 -0.19252 0.125197zm1.67008 -8.27247c0.201969,0 0.402757,0.0177166 0.598821,0.0519687 0.200788,0.0342521 0.395671,0.0862207 0.581104,0.152363l0.16063 0.0578742 -0.0720475 0.153544 -0.55512 1.1941 -0.055512 0.121654 -0.128741 -0.0377954c-0.0814963,-0.0236221 -0.170079,-0.0425198 -0.262206,-0.055512 -0.0850396,-0.0129922 -0.175985,-0.0188977 -0.26693,-0.0188977 -0.520868,0 -0.990948,0.210237 -1.33111,0.550395 -0.340159,0.340159 -0.551577,0.81142 -0.551577,1.33229 0,0.519687 0.211418,0.989767 0.551577,1.32993 0.340159,0.340159 0.810239,0.551577 1.33111,0.551577 0.422836,0 0.813782,-0.139371 1.12678,-0.37323l0 -0.00118111c0.321261,-0.239765 0.564569,-0.582285 0.680317,-0.976775l0.033071 -0.111024 0.115748 0 1.33937 0.00590553 0.184253 0.00118111 -0.0318899 0.180709c-0.144095,0.826774 -0.581104,1.5567 -1.2,2.0752 -0.607089,0.511419 -1.39252,0.818507 -2.24764,0.818507 -0.966145,0 -1.84253,-0.392127 -2.4756,-1.0252l-0.00118111 0c-0.633073,-0.634254 -1.0252,-1.50945 -1.0252,-2.4756 0,-0.966145 0.392127,-1.84253 1.0252,-2.4756l0.00118111 0c0.633073,-0.634254 1.50945,-1.02638 2.4756,-1.02638z"/>
  </g>
  <g id="_608087480">
   <path id="_570189824" class="fil3" d="M247.177 58.8486c4.43623,-0.00826774 8.69058,-0.804333 12.5847,-3.16064 3.74529,2.22757 7.94176,3.28111 12.5894,3.16064 1.21418,11.0552 -2.95395,19.7611 -12.5032,26.1166 -7.73388,-5.55947 -13.7457,-12.6603 -12.6709,-26.1166z"/>
   <path id="_608088536" class="fil2" d="M247.177 57.7785c2.1319,-0.00354332 4.22364,-0.197245 6.25278,-0.674412 1.99725,-0.468899 3.9319,-1.21772 5.77797,-2.33387l0.549214 -0.331891 0.550395 0.327166c1.78229,1.06063 3.67442,1.84134 5.67049,2.34331 2.01024,0.504332 4.12797,0.727561 6.34845,0.669687l0.98268 -0.0248032 0.107481 0.981499c0.62953,5.72482 -0.142914,10.8579 -2.31615,15.3957 -2.16969,4.5319 -5.72364,8.44137 -10.6607,11.7272l-0.614175 0.407482 -0.602364 -0.432285c-3.98033,-2.86064 -7.52483,-6.13112 -9.94964,-10.441 -2.43308,-4.32757 -3.72167,-9.66617 -3.16536,-16.6276l0.0791341 -0.983861 0.989767 -0.00236221zm6.73821 1.41497c-1.86142,0.437009 -3.77836,0.653152 -5.73309,0.708664 -0.331891,6.0201 0.839766,10.6666 2.96221,14.4414 2.12481,3.77836 5.21931,6.72167 8.72365,9.31184 4.29332,-2.97875 7.39491,-6.46183 9.30357,-10.4469 1.87323,-3.91419 2.60906,-8.34215 2.20749,-13.2815 -2.06221,-0.0188977 -4.03702,-0.264568 -5.92088,-0.738191 -1.99489,-0.500789 -3.89293,-1.25552 -5.69175,-2.26064 -1.88032,1.06181 -3.83623,1.79174 -5.8512,2.26536z"/>
   <path id="_567593032" class="fil2" d="M247.177 57.2801c1.04528,-0.00118111 2.08701,-0.0507876 3.11458,-0.157087 1.01575,-0.105118 2.02678,-0.271654 3.02481,-0.505513 0.977956,-0.229135 1.93938,-0.526773 2.87363,-0.901184l0.00118111 0c0.935436,-0.37323 1.85906,-0.830318 2.75906,-1.37363l0.549214 -0.331891 0.255119 -0.153544 0.2563 0.151182 0.550395 0.327166 0 0.00236221c0.865751,0.514962 1.76457,0.966145 2.68702,1.34646 0.917719,0.379135 1.86969,0.693309 2.85119,0.94016 0.983861,0.24567 1.99489,0.425198 3.02599,0.53386 1.03583,0.108662 2.10237,0.15 3.18899,0.121654l0.98268 -0.0248032 0.457088 -0.01063 0.0507876 0.455907 0.107481 0.981499c0.318899,2.9067 0.282284,5.66577 -0.108662,8.2701 -0.390946,2.61024 -1.14567,5.07758 -2.25473,7.39372 -1.1067,2.31379 -2.56654,4.46576 -4.37127,6.45238 -1.80119,1.98071 -3.95789,3.80789 -6.46301,5.47561l-0.614175 0.407482 -0.285828 0.190158 -0.279922 -0.201969 -0.602364 -0.432285c-2.0126,-1.44567 -3.91891,-3.00001 -5.62325,-4.73151 -1.71733,-1.74449 -3.23741,-3.67678 -4.47167,-5.86892 -1.23898,-2.20394 -2.18977,-4.67127 -2.7567,-7.47286 -0.56575,-2.79095 -0.752365,-5.9138 -0.471261,-9.43822l0.0791341 -0.983861 0.0377954 -0.458269 0.460631 -0.00118111 0.989767 -0.00236221zm3.21615 0.835042c-1.05827,0.109843 -2.13426,0.159449 -3.21615,0.161812l-0.527954 0.00118111 -0.0425198 0.525592c-0.274017,3.43466 -0.0944885,6.46537 0.452364,9.1642 0.54449,2.6882 1.45748,5.05868 2.6504,7.17994 1.19055,2.11418 2.65749,3.97797 4.31104,5.65868 1.66654,1.69371 3.52914,3.21143 5.49332,4.62285l0.322442 0.231497 0.328347 -0.218505c2.42954,-1.61693 4.52246,-3.39096 6.27404,-5.31734 1.74567,-1.92166 3.15355,-3.99332 4.21301,-6.20907 1.06181,-2.21812 1.78465,-4.58978 2.16261,-7.11026l0 -0.00236221c0.380316,-2.5252 0.414568,-5.20159 0.1063,-8.01499l-0.0578742 -0.524411 -0.524411 0.0129922c-1.13032,0.0295277 -2.23938,-0.0141733 -3.31655,-0.126378l-0.00236221 0c-1.07953,-0.114567 -2.1378,-0.301182 -3.163,-0.557482 -1.01575,-0.255119 -2.01379,-0.585829 -2.98584,-0.987405 -0.963783,-0.398033 -1.90276,-0.869294 -2.81576,-1.41142l-0.00118111 0.00118111 -0.294095 -0.174804 -0.294095 0.177166c-0.941342,0.569293 -1.91339,1.04882 -2.90434,1.44449 -0.990948,0.396852 -1.99961,0.709845 -3.01773,0.948428 -1.02874,0.240946 -2.08229,0.413387 -3.15001,0.524411zm3.63544 1.56497c-0.947247,0.222048 -1.91221,0.389765 -2.88544,0.506695 -0.814963,0.0980318 -1.6441,0.162993 -2.48387,0.197245 -0.118111,2.7756 0.0909452,5.2512 0.572836,7.47522 0.504332,2.33387 1.31221,4.3949 2.34804,6.23978 1.04055,1.84961 2.32087,3.49962 3.76773,4.99962 1.37481,1.42678 2.90788,2.72481 4.52954,3.94135 1.98662,-1.4067 3.70867,-2.92914 5.16261,-4.56261 1.52245,-1.70906 2.75198,-3.53977 3.68269,-5.48388 0.914176,-1.90985 1.55315,-3.95434 1.91339,-6.12285 0.337796,-2.03505 0.432285,-4.18702 0.278741,-6.45238 -0.895278,-0.022441 -1.77284,-0.0874019 -2.6256,-0.193701 -1.00394,-0.124016 -1.99134,-0.310631 -2.95277,-0.551577 -1.01103,-0.253938 -2.0067,-0.575199 -2.97993,-0.96142 -0.884648,-0.350789 -1.7504,-0.757089 -2.59017,-1.21418 -0.889373,0.486616 -1.78938,0.903546 -2.69647,1.25079 -0.996854,0.382678 -2.01379,0.689766 -3.04135,0.931893zm-3.00355 -0.485435c0.935436,-0.112205 1.86497,-0.274017 2.77678,-0.487797 0.985042,-0.231497 1.95945,-0.526773 2.91143,-0.891735 0.959058,-0.367324 1.89804,-0.806695 2.80867,-1.32048l0.243308 -0.137008 0.243308 0.134646c0.882286,0.492521 1.78938,0.925987 2.71654,1.29331 0.921263,0.366143 1.8756,0.67323 2.85473,0.918901 0.917719,0.230316 1.86379,0.408663 2.82993,0.527954 0.976775,0.120473 1.97008,0.187796 2.97284,0.196064l0.457088 0.00472442 0.0377954 0.454726c0.20315,2.50631 0.11693,4.89096 -0.2563,7.14451l0 0.00118111c-0.374411,2.25473 -1.04292,4.38899 -2.00079,6.38978 -0.975594,2.03859 -2.25591,3.94608 -3.83387,5.71773 -1.57323,1.76693 -3.45474,3.41103 -5.63506,4.92403l-0.292914 0.20315 -0.287009 -0.212599c-1.77166,-1.31103 -3.44529,-2.713 -4.94175,-4.26497 -1.50591,-1.56142 -2.8382,-3.27757 -3.92127,-5.20277 -1.08426,-1.92875 -1.92757,-4.08308 -2.45434,-6.51852 -0.525592,-2.42481 -0.739372,-5.13663 -0.570474,-8.19451l0.0259843 -0.457088 0.458269 -0.0141733c0.954334,-0.0271654 1.90985,-0.0944885 2.8571,-0.209056z"/>
   <path id="_1213341264" class="fil4" d="M254.765 70.6715l0.739372 0.0732286c-0.0944885,-1.03937 -0.969688,-1.85434 -2.03386,-1.85434 -1.12678,0 -2.04095,0.914176 -2.04095,2.04095 0,1.12796 0.914176,2.04213 2.04095,2.04213 0.778349,0 1.45512,-0.435828 1.79882,-1.07717l-0.654333 -0.0625986 0.15 -1.16221z"/>
   <path id="_608088584" class="fil4" d="M253.47 74.2715c1.44567,0 2.67521,-0.917719 3.14174,-2.20276l0.960239 0.0968507 0.148819 -1.16339 -0.910633 -0.0897641c-0.01063,-1.83544 -1.50237,-3.32009 -3.34017,-3.32009 -1.84371,0 -3.33899,1.49528 -3.33899,3.33899 0,1.84489 1.49528,3.34017 3.33899,3.34017z"/>
   <polygon id="_1213342968" class="fil4" points="260.884,66.8482 258.927,65.4026 259.48,67.766 "/>
   <polygon id="_567591256" class="fil4" points="264.128,67.6337 262.997,68.373 261.783,67.4967 259.725,68.8419 260.065,70.2888 258.963,71.0093 257.605,64.5522 258.704,63.8341 "/>
   <path id="_608090696" class="fil4" d="M265.882 59.647c0.396852,0 0.775987,0.0685042 1.12796,0.194883l-0.55512 1.1941c-0.180709,-0.0531498 -0.37323,-0.0814963 -0.572836,-0.0814963 -1.12559,0 -2.03741,0.911814 -2.03741,2.03741 0,1.12559 0.911814,2.03859 2.03741,2.03859 0.925987,0 1.70788,-0.617718 1.95591,-1.46339l1.34056 0.00590553c-0.275198,1.57087 -1.64646,2.76497 -3.29647,2.76497 -1.84725,0 -3.34607,-1.49764 -3.34607,-3.34607 0,-1.84725 1.49882,-3.34489 3.34607,-3.34489z"/>
   <path id="_570188192" class="fil5" d="M247.294 68.2349l17.5949 -10.8485c1.91812,0.57638 3.77482,1.38898 5.88663,1.45748l1.76575 2.6882c0.0366143,1.19174 0.45945,2.57245 0.361418,3.70513l-19.5709 13.115c-2.06221,-2.58662 -5.13427,-6.49136 -6.03781,-10.1174z"/>
   <path id="_608087240" class="fil3" d="M255.048 70.8357l0.738191 0.0732286c-0.0944885,-1.03937 -0.968507,-1.85434 -2.03268,-1.85434 -1.12678,0 -2.04213,0.914176 -2.04213,2.04213 0,1.12678 0.915357,2.04095 2.04213,2.04095 0.778349,0 1.45512,-0.435828 1.79882,-1.07599l-0.654333 -0.0637797 0.15 -1.16221zm-1.29449 3.60001c1.44449,0 2.67521,-0.917719 3.14056,-2.20158l0.960239 0.0956696 0.15 -1.16339 -0.911814 -0.0897641c-0.01063,-1.83544 -1.50119,-3.32009 -3.33899,-3.32009 -1.84489,0 -3.34017,1.49528 -3.34017,3.34017 0,1.84371 1.49528,3.33899 3.34017,3.33899zm7.41262 -7.42325l-1.95709 -1.44567 0.552758 2.36457 1.40434 -0.918901zm3.2445 0.785436l-1.1315 0.739372 -1.213 -0.8752 -2.05749 1.3441 0.340159 1.44685 -1.10315 0.720475 -1.35827 -6.45711 1.09843 -0.718112 5.42482 3.79962zm1.75512 -7.98664c0.395671,0 0.774806,0.0685042 1.12796,0.194883l-0.55512 1.1941c-0.18189,-0.0531498 -0.374411,-0.0814963 -0.572836,-0.0814963 -1.12559,0 -2.03859,0.912995 -2.03859,2.03859 0,1.12441 0.912995,2.03741 2.03859,2.03741 0.925987,0 1.70788,-0.617718 1.95591,-1.46339l1.33937 0.00590553c-0.275198,1.57087 -1.64646,2.76497 -3.29529,2.76497 -1.84843,0 -3.34607,-1.49764 -3.34607,-3.34489 0,-1.84843 1.49764,-3.34607 3.34607,-3.34607z"/>
   <path id="_569216968" class="fil0" d="M255.062 70.6809l0.543309 0.0543309c-0.0791341,-0.405119 -0.28819,-0.764176 -0.581104,-1.03229 -0.335434,-0.305906 -0.781892,-0.492521 -1.27087,-0.492521 -0.520868,0 -0.99331,0.211418 -1.33347,0.551577 -0.34134,0.34134 -0.552758,0.812601 -0.552758,1.33347 0,0.520868 0.211418,0.99331 0.552758,1.33347l0 0c0.340159,0.34134 0.812601,0.552758 1.33347,0.552758 0.354332,0 0.685042,-0.0968507 0.966145,-0.265749 0.22441,-0.133465 0.418112,-0.312993 0.569293,-0.524411l-0.4063 -0.0389765 -0.159449 -0.0153544 0.0212599 -0.158268 0.148819 -1.16339 0.0200788 -0.148819 0.148819 0.0141733zm0.69449 3.27875c-0.568112,0.398033 -1.25906,0.631892 -2.00316,0.631892 -0.964964,0 -1.83898,-0.392127 -2.47087,-1.02402l0 0c-0.633073,-0.633073 -1.02402,-1.50709 -1.02402,-2.47206 0,-0.963783 0.390946,-1.8378 1.02402,-2.47087l0 0c0.631892,-0.631892 1.50591,-1.02402 2.47087,-1.02402 0.960239,0 1.8319,0.388584 2.46379,1.01693 0.600002,0.59764 0.986224,1.41378 1.02638,2.31851l0.774806 0.0755908 0.159449 0.0165355 -0.0200788 0.157087 -0.148819 1.16339 -0.0188977 0.15 -0.15 -0.0153544 -0.84331 -0.0838585c-0.255119,0.633073 -0.689766,1.1752 -1.24016,1.56024l0 0zm5.13781 -6.95553l-1.43859 -1.06181 0.4063 1.73623 1.03229 -0.674412zm3.60119 0.923625l-1.1315 0.739372 -0.088583 0.0590553 -0.0862207 -0.0625986 -1.12678 -0.813782 -1.87796 1.22717 0.315355 1.34056 0.0248032 0.1063 -0.0909452 0.0590553 -1.10315 0.720475 -0.190158 0.125197 -0.0472442 -0.223229 -1.35827 -6.45711 -0.0212599 -0.103937 1.18701 -0.775987 0.088583 -0.0566931 5.50986 3.85985 0.188977 0.131103 -0.19252 0.125197zm1.67008 -8.27247c0.201969,0 0.402757,0.0177166 0.598821,0.0519687 0.200788,0.0342521 0.395671,0.0862207 0.581104,0.152363l0.16063 0.0578742 -0.0720475 0.153544 -0.55512 1.1941 -0.055512 0.121654 -0.128741 -0.0377954c-0.0814963,-0.0236221 -0.170079,-0.0425198 -0.262206,-0.055512 -0.0850396,-0.0129922 -0.175985,-0.0188977 -0.26693,-0.0188977 -0.520868,0 -0.990948,0.210237 -1.33111,0.550395 -0.340159,0.340159 -0.551577,0.81142 -0.551577,1.33229 0,0.519687 0.211418,0.989767 0.551577,1.32993 0.340159,0.340159 0.810239,0.551577 1.33111,0.551577 0.422836,0 0.813782,-0.139371 1.12678,-0.37323l0 -0.00118111c0.321261,-0.239765 0.564569,-0.582285 0.680317,-0.976775l0.033071 -0.111024 0.115748 0 1.33937 0.00590553 0.184253 0.00118111 -0.0318899 0.180709c-0.144095,0.826774 -0.581104,1.5567 -1.2,2.0752 -0.607089,0.511419 -1.39252,0.818507 -2.24764,0.818507 -0.966145,0 -1.84253,-0.392127 -2.4756,-1.0252l-0.00118111 0c-0.633073,-0.634254 -1.0252,-1.50945 -1.0252,-2.4756 0,-0.966145 0.392127,-1.84253 1.0252,-2.4756l0.00118111 0c0.633073,-0.634254 1.50945,-1.02638 2.4756,-1.02638z"/>
  </g>
 </g>
</svg>
